<svg xmlns="http://www.w3.org/2000/svg" xmlns:xlink="http://www.w3.org/1999/xlink" style="width:533px;height:437px;background:#fff" width="533" height="437" contentStyleType="text/css" preserveAspectRatio="none" version="1.1" viewBox="0 0 533 437" zoomAndPan="magnify"><g><g id="elem_ZoraTimedSaleStrategy"><rect id="ZoraTimedSaleStrategy" width="193" height="48" x="147" y="7" fill="#F1F1F1" codeLine="1" rx="2.5" ry="2.5" style="stroke:#181818;stroke-width:.5"/><ellipse cx="162" cy="23" fill="#ADD1B2" rx="11" ry="11" style="stroke:#181818;stroke-width:1"/><path fill="#000" d="M164.9688,28.6406 Q164.3906,28.9375 163.75,29.0781 Q163.1094,29.2344 162.4063,29.2344 Q159.9063,29.2344 158.5781,27.5938 Q157.2656,25.9375 157.2656,22.8125 Q157.2656,19.6875 158.5781,18.0313 Q159.9063,16.375 162.4063,16.375 Q163.1094,16.375 163.75,16.5313 Q164.4063,16.6875 164.9688,16.9844 L164.9688,19.7031 Q164.3438,19.125 163.75,18.8594 Q163.1563,18.5781 162.5313,18.5781 Q161.1875,18.5781 160.5,19.6563 Q159.8125,20.7188 159.8125,22.8125 Q159.8125,24.9063 160.5,25.9844 Q161.1875,27.0469 162.5313,27.0469 Q163.1563,27.0469 163.75,26.7813 Q164.3438,26.5 164.9688,25.9219 L164.9688,28.6406 Z"/><text x="176" y="27.847" fill="#000" font-family="sans-serif" font-size="14" lengthAdjust="spacing" textLength="161">ZoraTimedSaleStrategy</text><line style="stroke:#181818;stroke-width:.5" x1="148" x2="339" y1="39" y2="39"/><line style="stroke:#181818;stroke-width:.5" x1="148" x2="339" y1="47" y2="47"/></g><g id="elem_ERC20z"><rect id="ERC20z" width="87" height="48" x="7" y="132" fill="#F1F1F1" codeLine="4" rx="2.5" ry="2.5" style="stroke:#181818;stroke-width:.5"/><ellipse cx="22" cy="148" fill="#ADD1B2" rx="11" ry="11" style="stroke:#181818;stroke-width:1"/><path fill="#000" d="M24.9688,153.6406 Q24.3906,153.9375 23.75,154.0781 Q23.1094,154.2344 22.4063,154.2344 Q19.9063,154.2344 18.5781,152.5938 Q17.2656,150.9375 17.2656,147.8125 Q17.2656,144.6875 18.5781,143.0313 Q19.9063,141.375 22.4063,141.375 Q23.1094,141.375 23.75,141.5313 Q24.4063,141.6875 24.9688,141.9844 L24.9688,144.7031 Q24.3438,144.125 23.75,143.8594 Q23.1563,143.5781 22.5313,143.5781 Q21.1875,143.5781 20.5,144.6563 Q19.8125,145.7188 19.8125,147.8125 Q19.8125,149.9063 20.5,150.9844 Q21.1875,152.0469 22.5313,152.0469 Q23.1563,152.0469 23.75,151.7813 Q24.3438,151.5 24.9688,150.9219 L24.9688,153.6406 Z"/><text x="36" y="152.847" fill="#000" font-family="sans-serif" font-size="14" lengthAdjust="spacing" textLength="55">ERC20z</text><line style="stroke:#181818;stroke-width:.5" x1="8" x2="93" y1="164" y2="164"/><line style="stroke:#181818;stroke-width:.5" x1="8" x2="93" y1="172" y2="172"/></g><g id="elem_Royalties"><rect id="Royalties" width="94" height="48" x="160.5" y="257" fill="#F1F1F1" codeLine="7" rx="2.5" ry="2.5" style="stroke:#181818;stroke-width:.5"/><ellipse cx="175.5" cy="273" fill="#ADD1B2" rx="11" ry="11" style="stroke:#181818;stroke-width:1"/><path fill="#000" d="M178.4688,278.6406 Q177.8906,278.9375 177.25,279.0781 Q176.6094,279.2344 175.9063,279.2344 Q173.4063,279.2344 172.0781,277.5938 Q170.7656,275.9375 170.7656,272.8125 Q170.7656,269.6875 172.0781,268.0313 Q173.4063,266.375 175.9063,266.375 Q176.6094,266.375 177.25,266.5313 Q177.9063,266.6875 178.4688,266.9844 L178.4688,269.7031 Q177.8438,269.125 177.25,268.8594 Q176.6563,268.5781 176.0313,268.5781 Q174.6875,268.5781 174,269.6563 Q173.3125,270.7188 173.3125,272.8125 Q173.3125,274.9063 174,275.9844 Q174.6875,277.0469 176.0313,277.0469 Q176.6563,277.0469 177.25,276.7813 Q177.8438,276.5 178.4688,275.9219 L178.4688,278.6406 Z"/><text x="189.5" y="277.847" fill="#000" font-family="sans-serif" font-size="14" lengthAdjust="spacing" textLength="62">Royalties</text><line style="stroke:#181818;stroke-width:.5" x1="161.5" x2="253.5" y1="289" y2="289"/><line style="stroke:#181818;stroke-width:.5" x1="161.5" x2="253.5" y1="297" y2="297"/></g><g id="elem_ZoraCreator1155"><rect id="ZoraCreator1155" width="151" height="48" x="375" y="7" fill="#F1F1F1" codeLine="10" rx="2.5" ry="2.5" style="stroke:#181818;stroke-width:.5"/><ellipse cx="390" cy="23" fill="#ADD1B2" rx="11" ry="11" style="stroke:#181818;stroke-width:1"/><path fill="#000" d="M392.9688,28.6406 Q392.3906,28.9375 391.75,29.0781 Q391.1094,29.2344 390.4063,29.2344 Q387.9063,29.2344 386.5781,27.5938 Q385.2656,25.9375 385.2656,22.8125 Q385.2656,19.6875 386.5781,18.0313 Q387.9063,16.375 390.4063,16.375 Q391.1094,16.375 391.75,16.5313 Q392.4063,16.6875 392.9688,16.9844 L392.9688,19.7031 Q392.3438,19.125 391.75,18.8594 Q391.1563,18.5781 390.5313,18.5781 Q389.1875,18.5781 388.5,19.6563 Q387.8125,20.7188 387.8125,22.8125 Q387.8125,24.9063 388.5,25.9844 Q389.1875,27.0469 390.5313,27.0469 Q391.1563,27.0469 391.75,26.7813 Q392.3438,26.5 392.9688,25.9219 L392.9688,28.6406 Z"/><text x="404" y="27.847" fill="#000" font-family="sans-serif" font-size="14" lengthAdjust="spacing" textLength="119">ZoraCreator1155</text><line style="stroke:#181818;stroke-width:.5" x1="376" x2="525" y1="39" y2="39"/><line style="stroke:#181818;stroke-width:.5" x1="376" x2="525" y1="47" y2="47"/></g><g id="elem_UniswapLP"><rect id="UniswapLP" width="106" height="48" x="154.5" y="382" fill="#F1F1F1" codeLine="13" rx="2.5" ry="2.5" style="stroke:#181818;stroke-width:.5"/><ellipse cx="169.5" cy="398" fill="#ADD1B2" rx="11" ry="11" style="stroke:#181818;stroke-width:1"/><path fill="#000" d="M172.4688,403.6406 Q171.8906,403.9375 171.25,404.0781 Q170.6094,404.2344 169.9063,404.2344 Q167.4063,404.2344 166.0781,402.5938 Q164.7656,400.9375 164.7656,397.8125 Q164.7656,394.6875 166.0781,393.0313 Q167.4063,391.375 169.9063,391.375 Q170.6094,391.375 171.25,391.5313 Q171.9063,391.6875 172.4688,391.9844 L172.4688,394.7031 Q171.8438,394.125 171.25,393.8594 Q170.6563,393.5781 170.0313,393.5781 Q168.6875,393.5781 168,394.6563 Q167.3125,395.7188 167.3125,397.8125 Q167.3125,399.9063 168,400.9844 Q168.6875,402.0469 170.0313,402.0469 Q170.6563,402.0469 171.25,401.7813 Q171.8438,401.5 172.4688,400.9219 L172.4688,403.6406 Z"/><text x="183.5" y="402.847" fill="#000" font-family="sans-serif" font-size="14" lengthAdjust="spacing" textLength="74">UniswapLP</text><line style="stroke:#181818;stroke-width:.5" x1="155.5" x2="259.5" y1="414" y2="414"/><line style="stroke:#181818;stroke-width:.5" x1="155.5" x2="259.5" y1="422" y2="422"/></g><g id="elem_Creator"><rect id="Creator" width="83" height="48" x="191" y="132" fill="#F1F1F1" codeLine="17" rx="2.5" ry="2.5" style="stroke:#181818;stroke-width:.5"/><ellipse cx="206" cy="148" fill="#ADD1B2" rx="11" ry="11" style="stroke:#181818;stroke-width:1"/><path fill="#000" d="M208.9688,153.6406 Q208.3906,153.9375 207.75,154.0781 Q207.1094,154.2344 206.4063,154.2344 Q203.9063,154.2344 202.5781,152.5938 Q201.2656,150.9375 201.2656,147.8125 Q201.2656,144.6875 202.5781,143.0313 Q203.9063,141.375 206.4063,141.375 Q207.1094,141.375 207.75,141.5313 Q208.4063,141.6875 208.9688,141.9844 L208.9688,144.7031 Q208.3438,144.125 207.75,143.8594 Q207.1563,143.5781 206.5313,143.5781 Q205.1875,143.5781 204.5,144.6563 Q203.8125,145.7188 203.8125,147.8125 Q203.8125,149.9063 204.5,150.9844 Q205.1875,152.0469 206.5313,152.0469 Q207.1563,152.0469 207.75,151.7813 Q208.3438,151.5 208.9688,150.9219 L208.9688,153.6406 Z"/><text x="220" y="152.847" fill="#000" font-family="sans-serif" font-size="14" lengthAdjust="spacing" textLength="51">Creator</text><line style="stroke:#181818;stroke-width:.5" x1="192" x2="273" y1="164" y2="164"/><line style="stroke:#181818;stroke-width:.5" x1="192" x2="273" y1="172" y2="172"/></g><g id="link_ZoraTimedSaleStrategy_ERC20z"><path id="ZoraTimedSaleStrategy-to-ERC20z" fill="none" d="M235.66,55.05 C229.4,70.3 219.22,89.68 204.5,102 C174.56,127.07 132.1,140.51 99.35,147.58" codeLine="20" style="stroke:#181818;stroke-width:1"/><polygon fill="#181818" points="94.18 148.66 103.811 150.72 99.073 147.63 102.163 142.892 94.18 148.66" style="stroke:#181818;stroke-width:1"/><text x="219.5" y="98.067" fill="#000" font-family="sans-serif" font-size="13" lengthAdjust="spacing" textLength="48">creates</text></g><g id="link_ZoraTimedSaleStrategy_ERC20z"><path id="ZoraTimedSaleStrategy-to-ERC20z-1" fill="none" d="M146.91,46.2 C102.53,54.89 56.81,67.71 43.5,85 C34.48,96.72 35.56,113.02 39.21,126.95" codeLine="21" style="stroke:#181818;stroke-width:1"/><polygon fill="#181818" points="40.65 131.95 42.005 122.195 39.267 127.145 34.317 124.408 40.65 131.95" style="stroke:#181818;stroke-width:1"/><text x="44.5" y="98.067" fill="#000" font-family="sans-serif" font-size="13" lengthAdjust="spacing" textLength="151">deposits market reward</text></g><g id="link_ZoraTimedSaleStrategy_UniswapLP"><path id="ZoraTimedSaleStrategy-to-UniswapLP" fill="none" d="M267.58,55.03 C300.71,89.44 355.74,157.69 350.5,227 C346.27,283.03 365.9,307.57 331.5,352 C315.44,372.74 289.69,385.48 265.81,393.24" codeLine="23" style="stroke:#181818;stroke-width:1"/><polygon fill="#181818" points="260.74 394.83 270.524 395.955 265.511 393.335 268.132 388.321 260.74 394.83" style="stroke:#181818;stroke-width:1"/><text x="351.5" y="223.067" fill="#000" font-family="sans-serif" font-size="13" lengthAdjust="spacing" textLength="48">creates</text></g><g id="link_ERC20z_UniswapLP"><path id="ERC20z-to-UniswapLP" fill="none" d="M40.02,180.05 C27.76,210.74 11.83,265.71 34.5,305 C59.07,347.59 109.47,373.67 149.56,388.47" codeLine="25" style="stroke:#181818;stroke-width:1"/><polygon fill="#181818" points="154.4 390.22 147.291 383.404 149.696 388.524 144.577 390.93 154.4 390.22" style="stroke:#181818;stroke-width:1"/><text x="35.5" y="285.567" fill="#000" font-family="sans-serif" font-size="13" lengthAdjust="spacing" textLength="106">deposits liquidity</text></g><g id="link_ERC20z_Royalties"><path id="ERC20z-to-Royalties" fill="none" d="M51.13,180 C52.7,195.03 57.05,214.18 68.5,227 C90.7,251.85 125.84,265.12 155.23,272.16" codeLine="27" style="stroke:#181818;stroke-width:1"/><polygon fill="#181818" points="160.27 273.32 152.405 267.392 155.399 272.192 150.599 275.185 160.27 273.32" style="stroke:#181818;stroke-width:1"/><text x="69.5" y="223.067" fill="#000" font-family="sans-serif" font-size="13" lengthAdjust="spacing" textLength="140">sets as liquidity owner</text></g><g id="link_Royalties_UniswapLP"><path id="Royalties-to-UniswapLP" fill="none" d="M207.5,305.14 C207.5,325.49 207.5,355.19 207.5,376.91" codeLine="29" style="stroke:#181818;stroke-width:1"/><polygon fill="#181818" points="207.5 381.97 211.5 372.97 207.5 376.97 203.5 372.97 207.5 381.97" style="stroke:#181818;stroke-width:1"/><text x="208.5" y="348.067" fill="#000" font-family="sans-serif" font-size="13" lengthAdjust="spacing" textLength="114">withdraws liquidity</text></g><g id="link_Creator_Royalties"><path id="Creator-to-Royalties" fill="none" d="M227.8,180.14 C223.66,200.49 217.62,230.19 213.21,251.91" codeLine="31" style="stroke:#181818;stroke-width:1"/><polygon fill="#181818" points="212.18 256.97 217.899 248.952 213.18 252.071 210.06 247.352 212.18 256.97" style="stroke:#181818;stroke-width:1"/><text x="221.5" y="223.067" fill="#000" font-family="sans-serif" font-size="13" lengthAdjust="spacing" textLength="120">withdraws royalties</text></g></g></svg>