<svg xmlns="http://www.w3.org/2000/svg" xmlns:xlink="http://www.w3.org/1999/xlink" style="width:1019px;height:773px;background:#fff" width="1019" height="773" contentStyleType="text/css" preserveAspectRatio="none" version="1.1" viewBox="0 0 1019 773" zoomAndPan="magnify"><g><g id="elem_CointagFactory"><rect id="CointagFactory" width="264" height="80.594" x="484" y="148" fill="#FFF" codeLine="8" rx="2.5" ry="2.5" style="stroke:#000;stroke-width:.5"/><ellipse cx="560.25" cy="164" fill="#ADD1B2" rx="11" ry="11" style="stroke:#181818;stroke-width:1"/><path fill="#000" d="M563.2188,169.6406 Q562.6406,169.9375 562,170.0781 Q561.3594,170.2344 560.6563,170.2344 Q558.1563,170.2344 556.8281,168.5938 Q555.5156,166.9375 555.5156,163.8125 Q555.5156,160.6875 556.8281,159.0313 Q558.1563,157.375 560.6563,157.375 Q561.3594,157.375 562,157.5313 Q562.6563,157.6875 563.2188,157.9844 L563.2188,160.7031 Q562.5938,160.125 562,159.8594 Q561.4063,159.5781 560.7813,159.5781 Q559.4375,159.5781 558.75,160.6563 Q558.0625,161.7188 558.0625,163.8125 Q558.0625,165.9063 558.75,166.9844 Q559.4375,168.0469 560.7813,168.0469 Q561.4063,168.0469 562,167.7813 Q562.5938,167.5 563.2188,166.9219 L563.2188,169.6406 Z"/><text x="580.75" y="168.847" fill="#000" font-family="sans-serif" font-size="14" lengthAdjust="spacing" textLength="103">CointagFactory</text><line style="stroke:#000;stroke-width:.5" x1="485" x2="747" y1="180" y2="180"/><line style="stroke:#000;stroke-width:.5" x1="485" x2="747" y1="188" y2="188"/><ellipse cx="495" cy="209.797" fill="#84BE84" rx="3" ry="3" style="stroke:#038048;stroke-width:1"/><text x="504" y="204.995" fill="#000" font-family="sans-serif" font-size="14" lengthAdjust="spacing" textLength="143">getOrCreateCointag(</text><text x="504" y="221.292" fill="#000" font-family="sans-serif" font-size="14" lengthAdjust="spacing" textLength="238">creator, pool, buyBurnPercentage)</text></g><g id="elem_Cointag"><rect id="Cointag" width="192" height="113.188" x="439" y="321" fill="#FFF" codeLine="13" rx="2.5" ry="2.5" style="stroke:#000;stroke-width:.5"/><ellipse cx="504.25" cy="337" fill="#ADD1B2" rx="11" ry="11" style="stroke:#181818;stroke-width:1"/><path fill="#000" d="M507.2188,342.6406 Q506.6406,342.9375 506,343.0781 Q505.3594,343.2344 504.6563,343.2344 Q502.1563,343.2344 500.8281,341.5938 Q499.5156,339.9375 499.5156,336.8125 Q499.5156,333.6875 500.8281,332.0313 Q502.1563,330.375 504.6563,330.375 Q505.3594,330.375 506,330.5313 Q506.6563,330.6875 507.2188,330.9844 L507.2188,333.7031 Q506.5938,333.125 506,332.8594 Q505.4063,332.5781 504.7813,332.5781 Q503.4375,332.5781 502.75,333.6563 Q502.0625,334.7188 502.0625,336.8125 Q502.0625,338.9063 502.75,339.9844 Q503.4375,341.0469 504.7813,341.0469 Q505.4063,341.0469 506,340.7813 Q506.5938,340.5 507.2188,339.9219 L507.2188,342.6406 Z"/><text x="524.75" y="341.847" fill="#000" font-family="sans-serif" font-size="14" lengthAdjust="spacing" textLength="53">Cointag</text><line style="stroke:#000;stroke-width:.5" x1="440" x2="630" y1="353" y2="353"/><rect style="stroke:#c82930;stroke-width:1" width="6" height="6" x="447" y="363.648" fill="none"/><text x="459" y="369.995" fill="#000" font-family="sans-serif" font-size="14" lengthAdjust="spacing" textLength="157">percentageToBuyBurn</text><rect style="stroke:#c82930;stroke-width:1" width="6" height="6" x="447" y="379.945" fill="none"/><text x="459" y="386.292" fill="#000" font-family="sans-serif" font-size="14" lengthAdjust="spacing" textLength="166">creatorRewardRecipient</text><rect style="stroke:#c82930;stroke-width:1" width="6" height="6" x="447" y="396.242" fill="none"/><text x="459" y="402.589" fill="#000" font-family="sans-serif" font-size="14" lengthAdjust="spacing" textLength="105">uniswapV3Pool</text><line style="stroke:#000;stroke-width:.5" x1="440" x2="630" y1="409.891" y2="409.891"/><ellipse cx="450" cy="423.539" fill="#84BE84" rx="3" ry="3" style="stroke:#038048;stroke-width:1"/><text x="459" y="426.886" fill="#000" font-family="sans-serif" font-size="14" lengthAdjust="spacing" textLength="34">pull()</text></g><g id="elem_Protocol\nRewards"><rect id="Protocol\nRewards" width="105" height="107.484" x="92.5" y="534.5" fill="#FFF" codeLine="20" rx="2.5" ry="2.5" style="stroke:#000;stroke-width:.5"/><ellipse cx="113.35" cy="555.797" fill="#ADD1B2" rx="11" ry="11" style="stroke:#181818;stroke-width:1"/><path fill="#000" d="M116.3188,561.4375 Q115.7406,561.7344 115.1,561.875 Q114.4594,562.0313 113.7563,562.0313 Q111.2563,562.0313 109.9281,560.3906 Q108.6156,558.7344 108.6156,555.6094 Q108.6156,552.4844 109.9281,550.8281 Q111.2563,549.1719 113.7563,549.1719 Q114.4594,549.1719 115.1,549.3281 Q115.7563,549.4844 116.3188,549.7813 L116.3188,552.5 Q115.6938,551.9219 115.1,551.6563 Q114.5063,551.375 113.8813,551.375 Q112.5375,551.375 111.85,552.4531 Q111.1625,553.5156 111.1625,555.6094 Q111.1625,557.7031 111.85,558.7813 Q112.5375,559.8438 113.8813,559.8438 Q114.5063,559.8438 115.1,559.5781 Q115.6938,559.2969 116.3188,558.7188 L116.3188,561.4375 Z"/><text x="130.15" y="552.495" fill="#000" font-family="sans-serif" font-size="14" lengthAdjust="spacing" textLength="57">Protocol</text><text x="128.65" y="568.792" fill="#000" font-family="sans-serif" font-size="14" lengthAdjust="spacing" textLength="60">Rewards</text><line style="stroke:#000;stroke-width:.5" x1="93.5" x2="196.5" y1="577.094" y2="577.094"/><line style="stroke:#000;stroke-width:.5" x1="93.5" x2="196.5" y1="585.094" y2="585.094"/><ellipse cx="103.5" cy="598.742" fill="#84BE84" rx="3" ry="3" style="stroke:#038048;stroke-width:1"/><text x="112.5" y="602.089" fill="#000" font-family="sans-serif" font-size="14" lengthAdjust="spacing" textLength="62">deposit()</text><ellipse cx="103.5" cy="615.039" fill="#84BE84" rx="3" ry="3" style="stroke:#038048;stroke-width:1"/><text x="112.5" y="618.386" fill="#000" font-family="sans-serif" font-size="14" lengthAdjust="spacing" textLength="71">withdraw()</text><ellipse cx="103.5" cy="631.336" fill="#84BE84" rx="3" ry="3" style="stroke:#038048;stroke-width:1"/><text x="112.5" y="634.683" fill="#000" font-family="sans-serif" font-size="14" lengthAdjust="spacing" textLength="79">balanceOf()</text></g><g id="elem_WETH"><rect id="WETH" width="88" height="64.297" x="410" y="556" fill="#FFF" codeLine="26" rx="2.5" ry="2.5" style="stroke:#000;stroke-width:.5"/><ellipse cx="431.75" cy="572" fill="#ADD1B2" rx="11" ry="11" style="stroke:#181818;stroke-width:1"/><path fill="#000" d="M434.7188,577.6406 Q434.1406,577.9375 433.5,578.0781 Q432.8594,578.2344 432.1563,578.2344 Q429.6563,578.2344 428.3281,576.5938 Q427.0156,574.9375 427.0156,571.8125 Q427.0156,568.6875 428.3281,567.0313 Q429.6563,565.375 432.1563,565.375 Q432.8594,565.375 433.5,565.5313 Q434.1563,565.6875 434.7188,565.9844 L434.7188,568.7031 Q434.0938,568.125 433.5,567.8594 Q432.9063,567.5781 432.2813,567.5781 Q430.9375,567.5781 430.25,568.6563 Q429.5625,569.7188 429.5625,571.8125 Q429.5625,573.9063 430.25,574.9844 Q430.9375,576.0469 432.2813,576.0469 Q432.9063,576.0469 433.5,575.7813 Q434.0938,575.5 434.7188,574.9219 L434.7188,577.6406 Z"/><text x="447.25" y="576.847" fill="#000" font-family="sans-serif" font-size="14" lengthAdjust="spacing" textLength="41">WETH</text><line style="stroke:#000;stroke-width:.5" x1="411" x2="497" y1="588" y2="588"/><line style="stroke:#000;stroke-width:.5" x1="411" x2="497" y1="596" y2="596"/><ellipse cx="421" cy="609.648" fill="#84BE84" rx="3" ry="3" style="stroke:#038048;stroke-width:1"/><text x="430" y="612.995" fill="#000" font-family="sans-serif" font-size="14" lengthAdjust="spacing" textLength="62">deposit()</text></g><g id="elem_UniswapV3\nPool"><rect id="UniswapV3\nPool" width="188" height="123.781" x="617" y="526" fill="#FFF" codeLine="30" rx="2.5" ry="2.5" style="stroke:#000;stroke-width:.5"/><ellipse cx="668.75" cy="547.297" fill="#ADD1B2" rx="11" ry="11" style="stroke:#181818;stroke-width:1"/><path fill="#000" d="M671.7188,552.9375 Q671.1406,553.2344 670.5,553.375 Q669.8594,553.5313 669.1563,553.5313 Q666.6563,553.5313 665.3281,551.8906 Q664.0156,550.2344 664.0156,547.1094 Q664.0156,543.9844 665.3281,542.3281 Q666.6563,540.6719 669.1563,540.6719 Q669.8594,540.6719 670.5,540.8281 Q671.1563,540.9844 671.7188,541.2813 L671.7188,544 Q671.0938,543.4219 670.5,543.1563 Q669.9063,542.875 669.2813,542.875 Q667.9375,542.875 667.25,543.9531 Q666.5625,545.0156 666.5625,547.1094 Q666.5625,549.2031 667.25,550.2813 Q667.9375,551.3438 669.2813,551.3438 Q669.9063,551.3438 670.5,551.0781 Q671.0938,550.7969 671.7188,550.2188 L671.7188,552.9375 Z"/><text x="689.25" y="543.995" fill="#000" font-family="sans-serif" font-size="14" lengthAdjust="spacing" textLength="76">UniswapV3</text><text x="712.25" y="560.292" fill="#000" font-family="sans-serif" font-size="14" lengthAdjust="spacing" textLength="30">Pool</text><line style="stroke:#000;stroke-width:.5" x1="618" x2="804" y1="568.594" y2="568.594"/><rect style="stroke:#c82930;stroke-width:1" width="6" height="6" x="625" y="579.242" fill="none"/><text x="637" y="585.589" fill="#000" font-family="sans-serif" font-size="14" lengthAdjust="spacing" textLength="99">tokenA: WETH</text><rect style="stroke:#c82930;stroke-width:1" width="6" height="6" x="625" y="595.539" fill="none"/><text x="637" y="601.886" fill="#000" font-family="sans-serif" font-size="14" lengthAdjust="spacing" textLength="162">tokenB: desired ERC20</text><rect style="stroke:#c82930;stroke-width:1" width="6" height="6" x="625" y="611.836" fill="none"/><text x="637" y="618.183" fill="#000" font-family="sans-serif" font-size="14" lengthAdjust="spacing" textLength="22">fee</text><line style="stroke:#000;stroke-width:.5" x1="618" x2="804" y1="625.484" y2="625.484"/><ellipse cx="628" cy="639.133" fill="#84BE84" rx="3" ry="3" style="stroke:#038048;stroke-width:1"/><text x="637" y="642.48" fill="#000" font-family="sans-serif" font-size="14" lengthAdjust="spacing" textLength="46">swap()</text></g><g id="elem_ERC20"><rect id="ERC20" width="79" height="64.297" x="858.5" y="556" fill="#FFF" codeLine="37" rx="2.5" ry="2.5" style="stroke:#000;stroke-width:.5"/><ellipse cx="873.5" cy="572" fill="#ADD1B2" rx="11" ry="11" style="stroke:#181818;stroke-width:1"/><path fill="#000" d="M876.4688,577.6406 Q875.8906,577.9375 875.25,578.0781 Q874.6094,578.2344 873.9063,578.2344 Q871.4063,578.2344 870.0781,576.5938 Q868.7656,574.9375 868.7656,571.8125 Q868.7656,568.6875 870.0781,567.0313 Q871.4063,565.375 873.9063,565.375 Q874.6094,565.375 875.25,565.5313 Q875.9063,565.6875 876.4688,565.9844 L876.4688,568.7031 Q875.8438,568.125 875.25,567.8594 Q874.6563,567.5781 874.0313,567.5781 Q872.6875,567.5781 872,568.6563 Q871.3125,569.7188 871.3125,571.8125 Q871.3125,573.9063 872,574.9844 Q872.6875,576.0469 874.0313,576.0469 Q874.6563,576.0469 875.25,575.7813 Q875.8438,575.5 876.4688,574.9219 L876.4688,577.6406 Z"/><text x="887.5" y="576.847" fill="#000" font-family="sans-serif" font-size="14" lengthAdjust="spacing" textLength="47">ERC20</text><line style="stroke:#000;stroke-width:.5" x1="859.5" x2="936.5" y1="588" y2="588"/><line style="stroke:#000;stroke-width:.5" x1="859.5" x2="936.5" y1="596" y2="596"/><ellipse cx="869.5" cy="609.648" fill="#84BE84" rx="3" ry="3" style="stroke:#038048;stroke-width:1"/><text x="878.5" y="612.995" fill="#000" font-family="sans-serif" font-size="14" lengthAdjust="spacing" textLength="42">burn()</text></g><g id="elem_1155"><rect id="1155" width="279" height="64.297" x="169.5" y="156.5" fill="#FFF" codeLine="41" rx="2.5" ry="2.5" style="stroke:#000;stroke-width:.5"/><ellipse cx="286.75" cy="172.5" fill="#ADD1B2" rx="11" ry="11" style="stroke:#181818;stroke-width:1"/><path fill="#000" d="M289.7188,178.1406 Q289.1406,178.4375 288.5,178.5781 Q287.8594,178.7344 287.1563,178.7344 Q284.6563,178.7344 283.3281,177.0938 Q282.0156,175.4375 282.0156,172.3125 Q282.0156,169.1875 283.3281,167.5313 Q284.6563,165.875 287.1563,165.875 Q287.8594,165.875 288.5,166.0313 Q289.1563,166.1875 289.7188,166.4844 L289.7188,169.2031 Q289.0938,168.625 288.5,168.3594 Q287.9063,168.0781 287.2813,168.0781 Q285.9375,168.0781 285.25,169.1563 Q284.5625,170.2188 284.5625,172.3125 Q284.5625,174.4063 285.25,175.4844 Q285.9375,176.5469 287.2813,176.5469 Q287.9063,176.5469 288.5,176.2813 Q289.0938,176 289.7188,175.4219 L289.7188,178.1406 Z"/><text x="307.25" y="177.347" fill="#000" font-family="sans-serif" font-size="14" lengthAdjust="spacing" textLength="36">1155</text><line style="stroke:#000;stroke-width:.5" x1="170.5" x2="447.5" y1="188.5" y2="188.5"/><line style="stroke:#000;stroke-width:.5" x1="170.5" x2="447.5" y1="196.5" y2="196.5"/><ellipse cx="180.5" cy="210.148" fill="#84BE84" rx="3" ry="3" style="stroke:#038048;stroke-width:1"/><text x="189.5" y="213.495" fill="#000" font-family="sans-serif" font-size="14" lengthAdjust="spacing" textLength="253">getCreatorRewardRecipient(tokenId)</text></g><g id="elem_Minter"><rect id="Minter" width="75" height="64.297" x="107.5" y="7" fill="#FFF" codeLine="45" rx="2.5" ry="2.5" style="stroke:#000;stroke-width:.5"/><ellipse cx="122.5" cy="23" fill="#ADD1B2" rx="11" ry="11" style="stroke:#181818;stroke-width:1"/><path fill="#000" d="M125.4688,28.6406 Q124.8906,28.9375 124.25,29.0781 Q123.6094,29.2344 122.9063,29.2344 Q120.4063,29.2344 119.0781,27.5938 Q117.7656,25.9375 117.7656,22.8125 Q117.7656,19.6875 119.0781,18.0313 Q120.4063,16.375 122.9063,16.375 Q123.6094,16.375 124.25,16.5313 Q124.9063,16.6875 125.4688,16.9844 L125.4688,19.7031 Q124.8438,19.125 124.25,18.8594 Q123.6563,18.5781 123.0313,18.5781 Q121.6875,18.5781 121,19.6563 Q120.3125,20.7188 120.3125,22.8125 Q120.3125,24.9063 121,25.9844 Q121.6875,27.0469 123.0313,27.0469 Q123.6563,27.0469 124.25,26.7813 Q124.8438,26.5 125.4688,25.9219 L125.4688,28.6406 Z"/><text x="136.5" y="27.847" fill="#000" font-family="sans-serif" font-size="14" lengthAdjust="spacing" textLength="43">Minter</text><line style="stroke:#000;stroke-width:.5" x1="108.5" x2="181.5" y1="39" y2="39"/><line style="stroke:#000;stroke-width:.5" x1="108.5" x2="181.5" y1="47" y2="47"/><ellipse cx="118.5" cy="60.648" fill="#84BE84" rx="3" ry="3" style="stroke:#038048;stroke-width:1"/><text x="127.5" y="63.995" fill="#000" font-family="sans-serif" font-size="14" lengthAdjust="spacing" textLength="40">mint()</text></g><g id="elem_GMN18"><path fill="#FEFFDD" d="M666,334.5 L666,373.5 L631.39,377.5 L666,381.5 L666,420.1641 A0,0 0 0 0 666,420.1641 L900,420.1641 A0,0 0 0 0 900,420.1641 L900,344.5 L890,334.5 L666,334.5 A0,0 0 0 0 666,334.5" style="stroke:#181818;stroke-width:.5"/><path fill="#FEFFDD" d="M890,334.5 L890,344.5 L900,344.5 L890,334.5" style="stroke:#181818;stroke-width:.5"/><text x="672" y="351.567" fill="#000" font-family="sans-serif" font-size="13" lengthAdjust="spacing" textLength="213">Each Cointag instance is uniquely</text><text x="672" y="366.7" fill="#000" font-family="sans-serif" font-size="13" lengthAdjust="spacing" textLength="81">identified by:</text><text x="672" y="381.832" fill="#000" font-family="sans-serif" font-size="13" lengthAdjust="spacing" textLength="55">- creator</text><text x="672" y="396.965" fill="#000" font-family="sans-serif" font-size="13" lengthAdjust="spacing" textLength="36">- pool</text><text x="672" y="412.098" fill="#000" font-family="sans-serif" font-size="13" lengthAdjust="spacing" textLength="115">- burn percentage</text></g><g id="elem_GMN21"><path fill="#FEFFDD" d="M6,711 L6,766.3984 A0,0 0 0 0 6,766.3984 L284,766.3984 A0,0 0 0 0 284,766.3984 L284,721 L274,711 L149,711 L145,641.77 L141,711 L6,711 A0,0 0 0 0 6,711" style="stroke:#181818;stroke-width:.5"/><path fill="#FEFFDD" d="M274,711 L274,721 L284,721 L274,711" style="stroke:#181818;stroke-width:.5"/><text x="12" y="728.067" fill="#000" font-family="sans-serif" font-size="13" lengthAdjust="spacing" textLength="105">Escrows ETH for:</text><text x="12" y="743.2" fill="#000" font-family="sans-serif" font-size="13" lengthAdjust="spacing" textLength="257">1. Cointag balance from creator rewards</text><text x="12" y="758.332" fill="#000" font-family="sans-serif" font-size="13" lengthAdjust="spacing" textLength="153">2. Creator ETH after pull</text></g><g id="link_CointagFactory_Cointag"><path id="CointagFactory-to-Cointag" fill="none" d="M598.82,229.16 C587.89,254.39 573.52,287.57 561.19,316.05" codeLine="49" style="stroke:#000;stroke-width:1;stroke-dasharray:7,7"/><polygon fill="#000" points="559.07 320.94 566.317 314.271 561.057 316.352 558.976 311.092 559.07 320.94" style="stroke:#000;stroke-width:1"/><text x="586" y="279.567" fill="#000" font-family="sans-serif" font-size="13" lengthAdjust="spacing" textLength="48">creates</text></g><g id="link_Cointag_Protocol\nRewards"><path id="Cointag-to-Protocol\nRewards" fill="none" d="M438.8,392.77 C351.53,407.44 231.18,432.56 195,464 C175.67,480.8 163.7,506.18 156.35,529.54" codeLine="50" style="stroke:#000;stroke-width:1"/><polygon fill="#000" points="154.84 534.49 161.288 527.045 156.296 529.707 153.635 524.715 154.84 534.49" style="stroke:#000;stroke-width:1"/><text x="226.5" y="477.067" fill="#000" font-family="sans-serif" font-size="13" lengthAdjust="spacing" textLength="177">1. withdraws ETH during pull</text><text x="196" y="492.2" fill="#000" font-family="sans-serif" font-size="13" lengthAdjust="spacing" textLength="238">2. deposits remaining ETH for creator</text></g><g id="link_Cointag_UniswapV3\nPool"><path id="Cointag-to-UniswapV3\nPool" fill="none" d="M631.33,426.22 C646.5,437 660.83,449.6 672,464 C684.79,480.48 693.43,501.24 699.26,520.99" codeLine="51" style="stroke:#000;stroke-width:1"/><polygon fill="#000" points="700.68 525.99 702.054 516.237 699.306 521.182 694.361 518.435 700.68 525.99" style="stroke:#000;stroke-width:1"/><text x="690" y="484.567" fill="#000" font-family="sans-serif" font-size="13" lengthAdjust="spacing" textLength="145">swaps WETH for ERC20</text></g><g id="link_Cointag_WETH"><path id="Cointag-to-WETH" fill="none" d="M469.18,434.02 C461.8,443.24 455.37,453.31 451,464 C439.7,491.62 441.63,525.72 445.71,551" codeLine="52" style="stroke:#000;stroke-width:1"/><polygon fill="#000" points="446.55 555.94 448.976 546.394 445.707 551.011 441.09 547.743 446.55 555.94" style="stroke:#000;stroke-width:1"/><text x="452" y="477.067" fill="#000" font-family="sans-serif" font-size="13" lengthAdjust="spacing" textLength="215">wraps buyburn percentage of ETH</text><text x="505" y="492.2" fill="#000" font-family="sans-serif" font-size="13" lengthAdjust="spacing" textLength="109">to swap with pool</text></g><g id="link_Cointag_ERC20"><path id="Cointag-to-ERC20" fill="none" d="M631.21,427.78 C637.16,430.06 643.12,432.16 649,434 C732.7,460.15 774.45,410.59 844,464 C871.25,484.93 885.02,522.51 891.8,550.64" codeLine="53" style="stroke:#000;stroke-width:1"/><polygon fill="#000" points="892.99 555.78 894.856 546.109 891.861 550.909 887.062 547.915 892.99 555.78" style="stroke:#000;stroke-width:1"/><text x="870" y="484.567" fill="#000" font-family="sans-serif" font-size="13" lengthAdjust="spacing" textLength="141">burns received tokens</text></g><g id="link_Minter_1155"><path id="Minter-to-1155" fill="none" d="M179.78,71.28 C206.31,95.14 242.83,127.99 270.29,152.68" codeLine="54" style="stroke:#000;stroke-width:1"/><polygon fill="#000" points="274.27 156.26 270.256 147.266 270.553 152.915 264.904 153.213 274.27 156.26" style="stroke:#000;stroke-width:1"/><text x="228" y="114.067" fill="#000" font-family="sans-serif" font-size="13" lengthAdjust="spacing" textLength="184">gets creator reward recipient</text></g><g id="link_Minter_Protocol\nRewards"><path id="Minter-to-Protocol\nRewards" fill="none" d="M145,71.37 C145,160.18 145,414.28 145,529.25" codeLine="55" style="stroke:#000;stroke-width:1"/><polygon fill="#000" points="145 534.29 149 525.29 145 529.29 141 525.29 145 534.29" style="stroke:#000;stroke-width:1"/><text x="146" y="279.567" fill="#000" font-family="sans-serif" font-size="13" lengthAdjust="spacing" textLength="125">deposits rewards to</text></g><g id="link_1155_Cointag"><path id="1155-to-Cointag" fill="none" d="M337.57,220.73 C357.31,241.6 384.68,269.13 411,291 C422.02,300.16 434.01,309.31 446.04,318.05" codeLine="56" style="stroke:#000;stroke-width:1"/><polygon fill="#000" points="450.12 320.99 445.164 312.479 446.066 318.064 440.481 318.966 450.12 320.99" style="stroke:#000;stroke-width:1"/><text x="445" y="272.067" fill="#000" font-family="sans-serif" font-size="13" lengthAdjust="spacing" textLength="86">configured as</text><text x="412" y="287.2" fill="#000" font-family="sans-serif" font-size="13" lengthAdjust="spacing" textLength="152">creator reward recipient</text></g></g></svg>