<svg xmlns="http://www.w3.org/2000/svg" xmlns:xlink="http://www.w3.org/1999/xlink" style="width:1091px;height:979px;background:#fff" width="1091" height="979" contentStyleType="text/css" preserveAspectRatio="none" version="1.1" viewBox="0 0 1091 979" zoomAndPan="magnify"><g><rect style="stroke:#181818;stroke-width:1" width="10" height="398.594" x="632.5" y="481.891" fill="#FFF"/><line style="stroke:#181818;stroke-width:.5;stroke-dasharray:5,5" x1="33" x2="33" y1="81.297" y2="898.484"/><line style="stroke:#181818;stroke-width:.5;stroke-dasharray:5,5" x1="101" x2="101" y1="81.297" y2="898.484"/><line style="stroke:#181818;stroke-width:.5;stroke-dasharray:5,5" x1="235.5" x2="235.5" y1="81.297" y2="898.484"/><line style="stroke:#181818;stroke-width:.5;stroke-dasharray:5,5" x1="438" x2="438" y1="81.297" y2="898.484"/><line style="stroke:#181818;stroke-width:.5;stroke-dasharray:5,5" x1="535" x2="535" y1="81.297" y2="898.484"/><line style="stroke:#181818;stroke-width:.5;stroke-dasharray:5,5" x1="637" x2="637" y1="81.297" y2="898.484"/><line style="stroke:#181818;stroke-width:.5;stroke-dasharray:5,5" x1="812" x2="812" y1="81.297" y2="898.484"/><line style="stroke:#181818;stroke-width:.5;stroke-dasharray:5,5" x1="948" x2="948" y1="81.297" y2="898.484"/><line style="stroke:#181818;stroke-width:.5;stroke-dasharray:5,5" x1="1048" x2="1048" y1="81.297" y2="898.484"/><text x="5" y="77.995" fill="#000" font-family="sans-serif" font-size="14" lengthAdjust="spacing" textLength="51">Creator</text><ellipse cx="33.5" cy="13.5" fill="#E2E2F0" rx="8" ry="8" style="stroke:#181818;stroke-width:.5"/><path fill="none" d="M33.5,21.5 L33.5,48.5 M20.5,29.5 L46.5,29.5 M33.5,48.5 L20.5,63.5 M33.5,48.5 L46.5,63.5" style="stroke:#181818;stroke-width:.5"/><text x="5" y="910.48" fill="#000" font-family="sans-serif" font-size="14" lengthAdjust="spacing" textLength="51">Creator</text><ellipse cx="33.5" cy="922.281" fill="#E2E2F0" rx="8" ry="8" style="stroke:#181818;stroke-width:.5"/><path fill="none" d="M33.5,930.2813 L33.5,957.2813 M20.5,938.2813 L46.5,938.2813 M33.5,957.2813 L20.5,972.2813 M33.5,957.2813 L46.5,972.2813" style="stroke:#181818;stroke-width:.5"/><text x="72" y="77.995" fill="#000" font-family="sans-serif" font-size="14" lengthAdjust="spacing" textLength="52">Anyone</text><ellipse cx="101" cy="13.5" fill="#E2E2F0" rx="8" ry="8" style="stroke:#181818;stroke-width:.5"/><path fill="none" d="M101,21.5 L101,48.5 M88,29.5 L114,29.5 M101,48.5 L88,63.5 M101,48.5 L114,63.5" style="stroke:#181818;stroke-width:.5"/><text x="72" y="910.48" fill="#000" font-family="sans-serif" font-size="14" lengthAdjust="spacing" textLength="52">Anyone</text><ellipse cx="101" cy="922.281" fill="#E2E2F0" rx="8" ry="8" style="stroke:#181818;stroke-width:.5"/><path fill="none" d="M101,930.2813 L101,957.2813 M88,938.2813 L114,938.2813 M101,957.2813 L88,972.2813 M101,957.2813 L114,972.2813" style="stroke:#181818;stroke-width:.5"/><rect style="stroke:#181818;stroke-width:.5" width="50" height="30.297" x="210.5" y="50" fill="#E2E2F0" rx="2.5" ry="2.5"/><text x="217.5" y="69.995" fill="#000" font-family="sans-serif" font-size="14" lengthAdjust="spacing" textLength="36">1155</text><rect style="stroke:#181818;stroke-width:.5" width="50" height="30.297" x="210.5" y="897.484" fill="#E2E2F0" rx="2.5" ry="2.5"/><text x="217.5" y="917.48" fill="#000" font-family="sans-serif" font-size="14" lengthAdjust="spacing" textLength="36">1155</text><rect style="stroke:#181818;stroke-width:.5" width="57" height="30.297" x="410" y="50" fill="#E2E2F0" rx="2.5" ry="2.5"/><text x="417" y="69.995" fill="#000" font-family="sans-serif" font-size="14" lengthAdjust="spacing" textLength="43">Minter</text><rect style="stroke:#181818;stroke-width:.5" width="57" height="30.297" x="410" y="897.484" fill="#E2E2F0" rx="2.5" ry="2.5"/><text x="417" y="917.48" fill="#000" font-family="sans-serif" font-size="14" lengthAdjust="spacing" textLength="43">Minter</text><rect style="stroke:#181818;stroke-width:.5" width="117" height="30.297" x="477" y="50" fill="#E2E2F0" rx="2.5" ry="2.5"/><text x="484" y="69.995" fill="#000" font-family="sans-serif" font-size="14" lengthAdjust="spacing" textLength="103">CointagFactory</text><rect style="stroke:#181818;stroke-width:.5" width="117" height="30.297" x="477" y="897.484" fill="#E2E2F0" rx="2.5" ry="2.5"/><text x="484" y="917.48" fill="#000" font-family="sans-serif" font-size="14" lengthAdjust="spacing" textLength="103">CointagFactory</text><rect style="stroke:#181818;stroke-width:.5" width="67" height="30.297" x="604" y="50" fill="#E2E2F0" rx="2.5" ry="2.5"/><text x="611" y="69.995" fill="#000" font-family="sans-serif" font-size="14" lengthAdjust="spacing" textLength="53">Cointag</text><rect style="stroke:#181818;stroke-width:.5" width="67" height="30.297" x="604" y="897.484" fill="#E2E2F0" rx="2.5" ry="2.5"/><text x="611" y="917.48" fill="#000" font-family="sans-serif" font-size="14" lengthAdjust="spacing" textLength="53">Cointag</text><rect style="stroke:#181818;stroke-width:.5" width="131" height="30.297" x="747" y="50" fill="#E2E2F0" rx="2.5" ry="2.5"/><text x="754" y="69.995" fill="#000" font-family="sans-serif" font-size="14" lengthAdjust="spacing" textLength="117">ProtocolRewards</text><rect style="stroke:#181818;stroke-width:.5" width="131" height="30.297" x="747" y="897.484" fill="#E2E2F0" rx="2.5" ry="2.5"/><text x="754" y="917.48" fill="#000" font-family="sans-serif" font-size="14" lengthAdjust="spacing" textLength="117">ProtocolRewards</text><rect style="stroke:#181818;stroke-width:.5" width="120" height="30.297" x="888" y="50" fill="#E2E2F0" rx="2.5" ry="2.5"/><text x="895" y="69.995" fill="#000" font-family="sans-serif" font-size="14" lengthAdjust="spacing" textLength="106">UniswapV3Pool</text><rect style="stroke:#181818;stroke-width:.5" width="120" height="30.297" x="888" y="897.484" fill="#E2E2F0" rx="2.5" ry="2.5"/><text x="895" y="917.48" fill="#000" font-family="sans-serif" font-size="14" lengthAdjust="spacing" textLength="106">UniswapV3Pool</text><rect style="stroke:#181818;stroke-width:.5" width="61" height="30.297" x="1018" y="50" fill="#E2E2F0" rx="2.5" ry="2.5"/><text x="1025" y="69.995" fill="#000" font-family="sans-serif" font-size="14" lengthAdjust="spacing" textLength="47">ERC20</text><rect style="stroke:#181818;stroke-width:.5" width="61" height="30.297" x="1018" y="897.484" fill="#E2E2F0" rx="2.5" ry="2.5"/><text x="1025" y="917.48" fill="#000" font-family="sans-serif" font-size="14" lengthAdjust="spacing" textLength="47">ERC20</text><rect style="stroke:#181818;stroke-width:1" width="10" height="398.594" x="632.5" y="481.891" fill="#FFF"/><rect style="stroke:#eee;stroke-width:1" width="1084" height="3" x="0" y="111.863" fill="#EEE"/><line style="stroke:#000;stroke-width:1" x1="0" x2="1084" y1="111.863" y2="111.863"/><line style="stroke:#000;stroke-width:1" x1="0" x2="1084" y1="114.863" y2="114.863"/><rect style="stroke:#000;stroke-width:2" width="101" height="23.133" x="491.5" y="101.297" fill="#EEE"/><text x="497.5" y="117.364" fill="#000" font-family="sans-serif" font-size="13" font-weight="bold" lengthAdjust="spacing" textLength="82">Setup Flow</text><polygon fill="#181818" points="523.5 162.129 533.5 166.129 523.5 170.129 527.5 166.129" style="stroke:#181818;stroke-width:1"/><line style="stroke:#181818;stroke-width:1" x1="33.5" x2="529.5" y1="166.129" y2="166.129"/><text x="40.5" y="161.063" fill="#000" font-family="sans-serif" font-size="13" lengthAdjust="spacing" textLength="96">Create Cointag</text><path fill="#FEFFDD" d="M540,139.4297 L540,179.4297 L861,179.4297 L861,149.4297 L851,139.4297 L540,139.4297" style="stroke:#181818;stroke-width:.5"/><path fill="#FEFFDD" d="M851,139.4297 L851,149.4297 L861,149.4297 L851,139.4297" style="stroke:#181818;stroke-width:.5"/><text x="546" y="156.497" fill="#000" font-family="sans-serif" font-size="13" lengthAdjust="spacing" textLength="300">deterministic address based on combination of</text><text x="546" y="171.629" fill="#000" font-family="sans-serif" font-size="13" lengthAdjust="spacing" textLength="219">creator, percentage, Uniswap pool</text><polygon fill="#181818" points="625.5 201.828 635.5 205.828 625.5 209.828 629.5 205.828" style="stroke:#181818;stroke-width:1"/><line style="stroke:#181818;stroke-width:1" x1="535.5" x2="631.5" y1="205.828" y2="205.828"/><text x="542.5" y="200.762" fill="#000" font-family="sans-serif" font-size="13" lengthAdjust="spacing" textLength="43">Create</text><polygon fill="#181818" points="223.5 233.961 233.5 237.961 223.5 241.961 227.5 237.961" style="stroke:#181818;stroke-width:1"/><line style="stroke:#181818;stroke-width:1" x1="33.5" x2="229.5" y1="237.961" y2="237.961"/><text x="40.5" y="232.895" fill="#000" font-family="sans-serif" font-size="13" lengthAdjust="spacing" textLength="178">Set creator reward recipient</text><path fill="#FEFFDD" d="M240,218.8281 L240,243.8281 L408,243.8281 L408,228.8281 L398,218.8281 L240,218.8281" style="stroke:#181818;stroke-width:.5"/><path fill="#FEFFDD" d="M398,218.8281 L398,228.8281 L408,228.8281 L398,218.8281" style="stroke:#181818;stroke-width:.5"/><text x="246" y="235.895" fill="#000" font-family="sans-serif" font-size="13" lengthAdjust="spacing" textLength="147">Set to Cointag address</text><rect style="stroke:#eee;stroke-width:1" width="1084" height="3" x="0" y="269.527" fill="#EEE"/><line style="stroke:#000;stroke-width:1" x1="0" x2="1084" y1="269.527" y2="269.527"/><line style="stroke:#000;stroke-width:1" x1="0" x2="1084" y1="272.527" y2="272.527"/><rect style="stroke:#000;stroke-width:2" width="113" height="23.133" x="485.5" y="258.961" fill="#EEE"/><text x="491.5" y="275.028" fill="#000" font-family="sans-serif" font-size="13" font-weight="bold" lengthAdjust="spacing" textLength="94">Minting Flow</text><polygon fill="#181818" points="426.5 309.227 436.5 313.227 426.5 317.227 430.5 313.227" style="stroke:#181818;stroke-width:1"/><line style="stroke:#181818;stroke-width:1" x1="101" x2="432.5" y1="313.227" y2="313.227"/><text x="108" y="308.161" fill="#000" font-family="sans-serif" font-size="13" lengthAdjust="spacing" textLength="59">Mint Post</text><polygon fill="#181818" points="246.5 338.359 236.5 342.359 246.5 346.359 242.5 342.359" style="stroke:#181818;stroke-width:1"/><line style="stroke:#181818;stroke-width:1" x1="240.5" x2="437.5" y1="342.359" y2="342.359"/><text x="252.5" y="337.293" fill="#000" font-family="sans-serif" font-size="13" lengthAdjust="spacing" textLength="179">Get creator reward recipient</text><polygon fill="#181818" points="426.5 367.492 436.5 371.492 426.5 375.492 430.5 371.492" style="stroke:#181818;stroke-width:1"/><line style="stroke:#181818;stroke-width:1;stroke-dasharray:2,2" x1="235.5" x2="432.5" y1="371.492" y2="371.492"/><text x="242.5" y="366.426" fill="#000" font-family="sans-serif" font-size="13" lengthAdjust="spacing" textLength="150">Return Cointag address</text><polygon fill="#181818" points="800.5 399.625 810.5 403.625 800.5 407.625 804.5 403.625" style="stroke:#181818;stroke-width:1"/><line style="stroke:#181818;stroke-width:1" x1="438.5" x2="806.5" y1="403.625" y2="403.625"/><text x="445.5" y="398.559" fill="#000" font-family="sans-serif" font-size="13" lengthAdjust="spacing" textLength="103">Deposit rewards</text><path fill="#FEFFDD" d="M817,384.4922 L817,409.4922 L965,409.4922 L965,394.4922 L955,384.4922 L817,384.4922" style="stroke:#181818;stroke-width:.5"/><path fill="#FEFFDD" d="M955,384.4922 L955,394.4922 L965,394.4922 L955,384.4922" style="stroke:#181818;stroke-width:.5"/><text x="823" y="401.559" fill="#000" font-family="sans-serif" font-size="13" lengthAdjust="spacing" textLength="127">Cointag as recipient</text><rect style="stroke:#eee;stroke-width:1" width="1084" height="3" x="0" y="435.191" fill="#EEE"/><line style="stroke:#000;stroke-width:1" x1="0" x2="1084" y1="435.191" y2="435.191"/><line style="stroke:#000;stroke-width:1" x1="0" x2="1084" y1="438.191" y2="438.191"/><rect style="stroke:#000;stroke-width:2" width="85" height="23.133" x="499.5" y="424.625" fill="#EEE"/><text x="505.5" y="440.692" fill="#000" font-family="sans-serif" font-size="13" font-weight="bold" lengthAdjust="spacing" textLength="66">Pull Flow</text><polygon fill="#181818" points="620.5 477.891 630.5 481.891 620.5 485.891 624.5 481.891" style="stroke:#181818;stroke-width:1"/><line style="stroke:#181818;stroke-width:1" x1="101" x2="626.5" y1="481.891" y2="481.891"/><text x="108" y="476.825" fill="#000" font-family="sans-serif" font-size="13" lengthAdjust="spacing" textLength="32">pull()</text><path fill="#FEFFDD" d="M647,462.7578 L647,487.7578 L918,487.7578 L918,472.7578 L908,462.7578 L647,462.7578" style="stroke:#181818;stroke-width:.5"/><path fill="#FEFFDD" d="M908,462.7578 L908,472.7578 L918,472.7578 L908,462.7578" style="stroke:#181818;stroke-width:.5"/><text x="653" y="479.825" fill="#000" font-family="sans-serif" font-size="13" lengthAdjust="spacing" textLength="250">Anyone can trigger rewards distribution</text><polygon fill="#181818" points="800.5 510.023 810.5 514.023 800.5 518.023 804.5 514.023" style="stroke:#181818;stroke-width:1"/><line style="stroke:#181818;stroke-width:1" x1="642.5" x2="806.5" y1="514.023" y2="514.023"/><text x="649.5" y="508.957" fill="#000" font-family="sans-serif" font-size="13" lengthAdjust="spacing" textLength="65">withdraw()</text><polygon fill="#181818" points="653.5 539.156 643.5 543.156 653.5 547.156 649.5 543.156" style="stroke:#181818;stroke-width:1"/><line style="stroke:#181818;stroke-width:1;stroke-dasharray:2,2" x1="647.5" x2="811.5" y1="543.156" y2="543.156"/><text x="659.5" y="538.09" fill="#000" font-family="sans-serif" font-size="13" lengthAdjust="spacing" textLength="135">Transfer ETH rewards</text><line style="stroke:#181818;stroke-width:1" x1="642.5" x2="684.5" y1="572.289" y2="572.289"/><line style="stroke:#181818;stroke-width:1" x1="684.5" x2="684.5" y1="572.289" y2="585.289"/><line style="stroke:#181818;stroke-width:1" x1="643.5" x2="684.5" y1="585.289" y2="585.289"/><polygon fill="#181818" points="653.5 581.289 643.5 585.289 653.5 589.289 649.5 585.289" style="stroke:#181818;stroke-width:1"/><text x="649.5" y="567.223" fill="#000" font-family="sans-serif" font-size="13" lengthAdjust="spacing" textLength="89">Calculate split</text><path fill="#FEFFDD" d="M750,559.6563 L750,584.6563 L952,584.6563 L952,569.6563 L942,559.6563 L750,559.6563" style="stroke:#181818;stroke-width:.5"/><path fill="#FEFFDD" d="M942,559.6563 L942,569.6563 L952,569.6563 L942,559.6563" style="stroke:#181818;stroke-width:.5"/><text x="756" y="576.723" fill="#000" font-family="sans-serif" font-size="13" lengthAdjust="spacing" textLength="181">creator vs buyburn amounts</text><line style="stroke:#181818;stroke-width:1" x1="642.5" x2="684.5" y1="614.422" y2="614.422"/><line style="stroke:#181818;stroke-width:1" x1="684.5" x2="684.5" y1="614.422" y2="627.422"/><line style="stroke:#181818;stroke-width:1" x1="643.5" x2="684.5" y1="627.422" y2="627.422"/><polygon fill="#181818" points="653.5 623.422 643.5 627.422 653.5 631.422 649.5 627.422" style="stroke:#181818;stroke-width:1"/><text x="649.5" y="609.356" fill="#000" font-family="sans-serif" font-size="13" lengthAdjust="spacing" textLength="118">wrap ETH as WETH</text><polygon fill="#181818" points="936 652.555 946 656.555 936 660.555 940 656.555" style="stroke:#181818;stroke-width:1"/><line style="stroke:#181818;stroke-width:1" x1="642.5" x2="942" y1="656.555" y2="656.555"/><text x="649.5" y="651.489" fill="#000" font-family="sans-serif" font-size="13" lengthAdjust="spacing" textLength="140">Swap WETH for ERC20</text><polygon fill="#181818" points="1036.5 681.688 1046.5 685.688 1036.5 689.688 1040.5 685.688" style="stroke:#181818;stroke-width:1"/><line style="stroke:#181818;stroke-width:1" x1="948" x2="1042.5" y1="685.688" y2="685.688"/><text x="955" y="680.622" fill="#000" font-family="sans-serif" font-size="13" lengthAdjust="spacing" textLength="52">Transfer</text><polygon fill="#181818" points="653.5 710.82 643.5 714.82 653.5 718.82 649.5 714.82" style="stroke:#181818;stroke-width:1"/><line style="stroke:#181818;stroke-width:1;stroke-dasharray:2,2" x1="647.5" x2="1047.5" y1="714.82" y2="714.82"/><text x="659.5" y="709.754" fill="#000" font-family="sans-serif" font-size="13" lengthAdjust="spacing" textLength="172">amount of ERC20 for WETH</text><polygon fill="#181818" points="1036.5 739.953 1046.5 743.953 1036.5 747.953 1040.5 743.953" style="stroke:#181818;stroke-width:1"/><line style="stroke:#181818;stroke-width:1" x1="642.5" x2="1042.5" y1="743.953" y2="743.953"/><text x="649.5" y="738.887" fill="#000" font-family="sans-serif" font-size="13" lengthAdjust="spacing" textLength="134">Burn current balance</text><polygon fill="#181818" points="800.5 772.086 810.5 776.086 800.5 780.086 804.5 776.086" style="stroke:#181818;stroke-width:1"/><line style="stroke:#181818;stroke-width:1" x1="642.5" x2="806.5" y1="776.086" y2="776.086"/><text x="649.5" y="771.02" fill="#000" font-family="sans-serif" font-size="13" lengthAdjust="spacing" textLength="146">Deposit remaining ETH</text><path fill="#FEFFDD" d="M817,756.9531 L817,781.9531 L978,781.9531 L978,766.9531 L968,756.9531 L817,756.9531" style="stroke:#181818;stroke-width:.5"/><path fill="#FEFFDD" d="M968,756.9531 L968,766.9531 L978,766.9531 L968,756.9531" style="stroke:#181818;stroke-width:.5"/><text x="823" y="774.02" fill="#000" font-family="sans-serif" font-size="13" lengthAdjust="spacing" textLength="140">as rewards for creator</text><rect style="stroke:#eee;stroke-width:1" width="1084" height="3" x="0" y="807.652" fill="#EEE"/><line style="stroke:#000;stroke-width:1" x1="0" x2="1084" y1="807.652" y2="807.652"/><line style="stroke:#000;stroke-width:1" x1="0" x2="1084" y1="810.652" y2="810.652"/><rect style="stroke:#000;stroke-width:2" width="251" height="23.133" x="416.5" y="797.086" fill="#EEE"/><text x="422.5" y="813.153" fill="#000" font-family="sans-serif" font-size="13" font-weight="bold" lengthAdjust="spacing" textLength="232">Creator Withdrawal of Rewards</text><polygon fill="#181818" points="800.5 847.352 810.5 851.352 800.5 855.352 804.5 851.352" style="stroke:#181818;stroke-width:1"/><line style="stroke:#181818;stroke-width:1" x1="33.5" x2="806.5" y1="851.352" y2="851.352"/><text x="40.5" y="846.286" fill="#000" font-family="sans-serif" font-size="13" lengthAdjust="spacing" textLength="65">withdraw()</text><polygon fill="#181818" points="44.5 876.484 34.5 880.484 44.5 884.484 40.5 880.484" style="stroke:#181818;stroke-width:1"/><line style="stroke:#181818;stroke-width:1;stroke-dasharray:2,2" x1="38.5" x2="811.5" y1="880.484" y2="880.484"/><text x="50.5" y="875.418" fill="#000" font-family="sans-serif" font-size="13" lengthAdjust="spacing" textLength="135">Transfer ETH rewards</text></g></svg>