<svg xmlns="http://www.w3.org/2000/svg" xmlns:xlink="http://www.w3.org/1999/xlink" width="1446" height="653" contentStyleType="text/css" preserveAspectRatio="none" style="width:1446px;height:653px;background:#fff" version="1.1" viewBox="0 0 1446 653" zoomAndPan="magnify"><g><rect width="10" height="161.93" x="259.5" fill="#FFF" style="stroke:#181818;stroke-width:1" y="142.695"/><rect width="10" height="191.93" x="827.5" fill="#FFF" style="stroke:#181818;stroke-width:1" y="333.758"/><rect width="10" height="29.133" x="1002.5" fill="#FFF" style="stroke:#181818;stroke-width:1" y="387.023"/><rect width="10" height="138.664" x="1138.5" fill="#FFF" style="stroke:#181818;stroke-width:1" y="416.156"/><rect width="471" height="75.398" x="733" fill="none" style="stroke:#000;stroke-width:1.5" y="348.758"/><line style="stroke:#181818;stroke-width:.5;stroke-dasharray:5,5" x1="38" x2="38" y1="81.297" y2="572.82"/><line style="stroke:#181818;stroke-width:.5;stroke-dasharray:5,5" x1="264.5" x2="264.5" y1="81.297" y2="572.82"/><line style="stroke:#181818;stroke-width:.5;stroke-dasharray:5,5" x1="469" x2="469" y1="81.297" y2="572.82"/><line style="stroke:#181818;stroke-width:.5;stroke-dasharray:5,5" x1="549" x2="549" y1="81.297" y2="572.82"/><line style="stroke:#181818;stroke-width:.5;stroke-dasharray:5,5" x1="832" x2="832" y1="81.297" y2="572.82"/><line style="stroke:#181818;stroke-width:.5;stroke-dasharray:5,5" x1="1007" x2="1007" y1="81.297" y2="572.82"/><line style="stroke:#181818;stroke-width:.5;stroke-dasharray:5,5" x1="1143" x2="1143" y1="81.297" y2="572.82"/><line style="stroke:#181818;stroke-width:.5;stroke-dasharray:5,5" x1="1370.5" x2="1370.5" y1="81.297" y2="572.82"/><text x="5" y="77.995" fill="#000" font-family="sans-serif" font-size="14" lengthAdjust="spacing" textLength="61">Collector</text><ellipse cx="38.5" cy="13.5" fill="#E2E2F0" rx="8" ry="8" style="stroke:#181818;stroke-width:.5"/><path fill="none" d="M38.5,21.5 L38.5,48.5 M25.5,29.5 L51.5,29.5 M38.5,48.5 L25.5,63.5 M38.5,48.5 L51.5,63.5" style="stroke:#181818;stroke-width:.5"/><text x="5" y="584.815" fill="#000" font-family="sans-serif" font-size="14" lengthAdjust="spacing" textLength="61">Collector</text><ellipse cx="38.5" cy="596.617" fill="#E2E2F0" rx="8" ry="8" style="stroke:#181818;stroke-width:.5"/><path fill="none" d="M38.5,604.6172 L38.5,631.6172 M25.5,612.6172 L51.5,612.6172 M38.5,631.6172 L25.5,646.6172 M38.5,631.6172 L51.5,646.6172" style="stroke:#181818;stroke-width:.5"/><text x="231.5" y="77.995" fill="#000" font-family="sans-serif" font-size="14" lengthAdjust="spacing" textLength="60">CollectUI</text><ellipse cx="264.5" cy="49" fill="#E2E2F0" rx="12" ry="12" style="stroke:#181818;stroke-width:.5"/><line style="stroke:#181818;stroke-width:.5" x1="252.5" x2="276.5" y1="63" y2="63"/><text x="231.5" y="584.815" fill="#000" font-family="sans-serif" font-size="14" lengthAdjust="spacing" textLength="60">CollectUI</text><ellipse cx="264.5" cy="604.117" fill="#E2E2F0" rx="12" ry="12" style="stroke:#181818;stroke-width:.5"/><line style="stroke:#181818;stroke-width:.5" x1="252.5" x2="276.5" y1="618.117" y2="618.117"/><text x="446" y="77.995" fill="#000" font-family="sans-serif" font-size="14" lengthAdjust="spacing" textLength="41">Wallet</text><ellipse cx="469.5" cy="49" fill="#E2E2F0" rx="12" ry="12" style="stroke:#181818;stroke-width:.5"/><line style="stroke:#181818;stroke-width:.5" x1="457.5" x2="481.5" y1="63" y2="63"/><text x="446" y="584.815" fill="#000" font-family="sans-serif" font-size="14" lengthAdjust="spacing" textLength="41">Wallet</text><ellipse cx="469.5" cy="604.117" fill="#E2E2F0" rx="12" ry="12" style="stroke:#181818;stroke-width:.5"/><line style="stroke:#181818;stroke-width:.5" x1="457.5" x2="481.5" y1="618.117" y2="618.117"/><text x="503" y="77.995" fill="#000" font-family="sans-serif" font-size="14" lengthAdjust="spacing" textLength="87">SignatureAPI</text><path fill="none" d="M529,37 L529,61 M529,49 L546,49" style="stroke:#181818;stroke-width:.5"/><ellipse cx="558" cy="49" fill="#E2E2F0" rx="12" ry="12" style="stroke:#181818;stroke-width:.5"/><text x="503" y="584.815" fill="#000" font-family="sans-serif" font-size="14" lengthAdjust="spacing" textLength="87">SignatureAPI</text><path fill="none" d="M529,592.1172 L529,616.1172 M529,604.1172 L546,604.1172" style="stroke:#181818;stroke-width:.5"/><ellipse cx="558" cy="604.117" fill="#E2E2F0" rx="12" ry="12" style="stroke:#181818;stroke-width:.5"/><text x="743" y="77.995" fill="#000" font-family="sans-serif" font-size="14" lengthAdjust="spacing" textLength="173">PremintExecutorContract</text><ellipse cx="832.5" cy="49" fill="#E2E2F0" rx="12" ry="12" style="stroke:#181818;stroke-width:.5"/><line style="stroke:#181818;stroke-width:.5" x1="820.5" x2="844.5" y1="63" y2="63"/><text x="743" y="584.815" fill="#000" font-family="sans-serif" font-size="14" lengthAdjust="spacing" textLength="173">PremintExecutorContract</text><ellipse cx="832.5" cy="604.117" fill="#E2E2F0" rx="12" ry="12" style="stroke:#181818;stroke-width:.5"/><line style="stroke:#181818;stroke-width:.5" x1="820.5" x2="844.5" y1="618.117" y2="618.117"/><text x="932" y="77.995" fill="#000" font-family="sans-serif" font-size="14" lengthAdjust="spacing" textLength="145">1155FactoryContract</text><ellipse cx="1007.5" cy="49" fill="#E2E2F0" rx="12" ry="12" style="stroke:#181818;stroke-width:.5"/><line style="stroke:#181818;stroke-width:.5" x1="995.5" x2="1019.5" y1="63" y2="63"/><text x="932" y="584.815" fill="#000" font-family="sans-serif" font-size="14" lengthAdjust="spacing" textLength="145">1155FactoryContract</text><ellipse cx="1007.5" cy="604.117" fill="#E2E2F0" rx="12" ry="12" style="stroke:#181818;stroke-width:.5"/><line style="stroke:#181818;stroke-width:.5" x1="995.5" x2="1019.5" y1="618.117" y2="618.117"/><text x="1093" y="77.995" fill="#000" font-family="sans-serif" font-size="14" lengthAdjust="spacing" textLength="95">1155Contract</text><ellipse cx="1143.5" cy="49" fill="#E2E2F0" rx="12" ry="12" style="stroke:#181818;stroke-width:.5"/><line style="stroke:#181818;stroke-width:.5" x1="1131.5" x2="1155.5" y1="63" y2="63"/><text x="1093" y="584.815" fill="#000" font-family="sans-serif" font-size="14" lengthAdjust="spacing" textLength="95">1155Contract</text><ellipse cx="1143.5" cy="604.117" fill="#E2E2F0" rx="12" ry="12" style="stroke:#181818;stroke-width:.5"/><line style="stroke:#181818;stroke-width:.5" x1="1131.5" x2="1155.5" y1="618.117" y2="618.117"/><rect width="140" height="30.297" x="1300.5" y="50" fill="#E2E2F0" rx="2.5" ry="2.5" style="stroke:#181818;stroke-width:.5"/><text x="1307.5" y="69.995" fill="#000" font-family="sans-serif" font-size="14" lengthAdjust="spacing" textLength="126">PreminterContract</text><rect width="140" height="30.297" x="1300.5" y="571.82" fill="#E2E2F0" rx="2.5" ry="2.5" style="stroke:#181818;stroke-width:.5"/><text x="1307.5" y="591.815" fill="#000" font-family="sans-serif" font-size="14" lengthAdjust="spacing" textLength="126">PreminterContract</text><rect width="10" height="161.93" x="259.5" fill="#FFF" style="stroke:#181818;stroke-width:1" y="142.695"/><rect width="10" height="191.93" x="827.5" fill="#FFF" style="stroke:#181818;stroke-width:1" y="333.758"/><rect width="10" height="29.133" x="1002.5" fill="#FFF" style="stroke:#181818;stroke-width:1" y="387.023"/><rect width="10" height="138.664" x="1138.5" fill="#FFF" style="stroke:#181818;stroke-width:1" y="416.156"/><polygon fill="#181818" points="247.5 138.695 257.5 142.695 247.5 146.695 251.5 142.695" style="stroke:#181818;stroke-width:1"/><line style="stroke:#181818;stroke-width:1" x1="38.5" x2="253.5" y1="142.695" y2="142.695"/><text x="45.5" y="107.364" fill="#000" font-family="sans-serif" font-size="13" lengthAdjust="spacing" textLength="98">Open, param is</text><text x="45.5" y="122.497" fill="#000" font-family="sans-serif" font-size="13" lengthAdjust="spacing" textLength="202">deterministic collection address</text><text x="45.5" y="137.629" fill="#000" font-family="sans-serif" font-size="13" lengthAdjust="spacing" textLength="74">+ token uid</text><polygon fill="#181818" points="537.5 182.961 547.5 186.961 537.5 190.961 541.5 186.961" style="stroke:#181818;stroke-width:1"/><line style="stroke:#181818;stroke-width:1" x1="269.5" x2="543.5" y1="186.961" y2="186.961"/><text x="276.5" y="166.762" fill="#000" font-family="sans-serif" font-size="13" lengthAdjust="spacing" textLength="58">Fetch by:</text><text x="276.5" y="181.895" fill="#000" font-family="sans-serif" font-size="13" lengthAdjust="spacing" textLength="196">collection address, premint uid</text><polygon fill="#181818" points="280.5 242.359 270.5 246.359 280.5 250.359 276.5 246.359" style="stroke:#181818;stroke-width:1"/><line style="stroke:#181818;stroke-width:1;stroke-dasharray:2,2" x1="274.5" x2="548.5" y1="246.359" y2="246.359"/><text x="286.5" y="211.028" fill="#000" font-family="sans-serif" font-size="13" lengthAdjust="spacing" textLength="166">contract creation params,</text><text x="286.5" y="226.161" fill="#000" font-family="sans-serif" font-size="13" lengthAdjust="spacing" textLength="149">token creation params,</text><text x="286.5" y="241.293" fill="#000" font-family="sans-serif" font-size="13" lengthAdjust="spacing" textLength="60">signature</text><polygon fill="#181818" points="247.5 271.492 257.5 275.492 247.5 279.492 251.5 275.492" style="stroke:#181818;stroke-width:1"/><line style="stroke:#181818;stroke-width:1" x1="38.5" x2="253.5" y1="275.492" y2="275.492"/><text x="45.5" y="270.426" fill="#000" font-family="sans-serif" font-size="13" lengthAdjust="spacing" textLength="29">mint</text><polygon fill="#181818" points="457.5 300.625 467.5 304.625 457.5 308.625 461.5 304.625" style="stroke:#181818;stroke-width:1"/><line style="stroke:#181818;stroke-width:1" x1="264.5" x2="463.5" y1="304.625" y2="304.625"/><text x="271.5" y="299.559" fill="#000" font-family="sans-serif" font-size="13" lengthAdjust="spacing" textLength="176">Submit premint transaction</text><polygon fill="#181818" points="815.5 329.758 825.5 333.758 815.5 337.758 819.5 333.758" style="stroke:#181818;stroke-width:1"/><line style="stroke:#181818;stroke-width:1" x1="469.5" x2="821.5" y1="333.758" y2="333.758"/><text x="476.5" y="328.692" fill="#000" font-family="sans-serif" font-size="13" lengthAdjust="spacing" textLength="339">premint(collectionConfig, tokenConfig, uid, signature)</text><path fill="#EEE" d="M733,348.7578 L935,348.7578 L935,355.8906 L925,365.8906 L733,365.8906 L733,348.7578" style="stroke:#000;stroke-width:1.5"/><rect width="471" height="75.398" x="733" fill="none" style="stroke:#000;stroke-width:1.5" y="348.758"/><text x="748" y="361.825" fill="#000" font-family="sans-serif" font-size="13" font-weight="bold" lengthAdjust="spacing" textLength="157">contract doesnt exist</text><polygon fill="#181818" points="990.5 383.023 1000.5 387.023 990.5 391.023 994.5 387.023" style="stroke:#181818;stroke-width:1"/><line style="stroke:#181818;stroke-width:1" x1="837.5" x2="996.5" y1="387.023" y2="387.023"/><text x="844.5" y="381.957" fill="#000" font-family="sans-serif" font-size="13" lengthAdjust="spacing" textLength="98">create contract</text><polygon fill="#181818" points="1126.5 412.156 1136.5 416.156 1126.5 420.156 1130.5 416.156" style="stroke:#181818;stroke-width:1"/><line style="stroke:#181818;stroke-width:1" x1="1007.5" x2="1132.5" y1="416.156" y2="416.156"/><text x="1014.5" y="411.09" fill="#000" font-family="sans-serif" font-size="13" lengthAdjust="spacing" textLength="41">create</text><polygon fill="#181818" points="1159.5 463.422 1149.5 467.422 1159.5 471.422 1155.5 467.422" style="stroke:#181818;stroke-width:1"/><line style="stroke:#181818;stroke-width:1" x1="1153.5" x2="1369.5" y1="467.422" y2="467.422"/><text x="1165.5" y="447.223" fill="#000" font-family="sans-serif" font-size="13" lengthAdjust="spacing" textLength="110">create new token</text><text x="1165.5" y="462.356" fill="#000" font-family="sans-serif" font-size="13" lengthAdjust="spacing" textLength="89">with signature</text><polygon fill="#181818" points="1159.5 492.555 1149.5 496.555 1159.5 500.555 1155.5 496.555" style="stroke:#181818;stroke-width:1"/><line style="stroke:#181818;stroke-width:1" x1="1153.5" x2="1369.5" y1="496.555" y2="496.555"/><text x="1165.5" y="491.489" fill="#000" font-family="sans-serif" font-size="13" lengthAdjust="spacing" textLength="198">set new token sale parameters</text><polygon fill="#181818" points="1159.5 521.688 1149.5 525.688 1159.5 529.688 1155.5 525.688" style="stroke:#181818;stroke-width:1"/><line style="stroke:#181818;stroke-width:1" x1="1153.5" x2="1369.5" y1="525.688" y2="525.688"/><text x="1165.5" y="520.622" fill="#000" font-family="sans-serif" font-size="13" lengthAdjust="spacing" textLength="151">mint tokens to collector</text><polygon fill="#181818" points="49.5 550.82 39.5 554.82 49.5 558.82 45.5 554.82" style="stroke:#181818;stroke-width:1"/><line style="stroke:#181818;stroke-width:1;stroke-dasharray:2,2" x1="43.5" x2="1142.5" y1="554.82" y2="554.82"/><text x="55.5" y="549.754" fill="#000" font-family="sans-serif" font-size="13" lengthAdjust="spacing" textLength="90">Minted tokens</text></g></svg>