<svg xmlns="http://www.w3.org/2000/svg" xmlns:xlink="http://www.w3.org/1999/xlink" width="1128" height="1075" contentStyleType="text/css" preserveAspectRatio="none" style="width:1128px;height:1075px;background:#fff" version="1.1" viewBox="0 0 1128 1075" zoomAndPan="magnify"><g><text x="340.25" y="27.995" fill="#000" font-family="sans-serif" font-size="14" font-weight="bold" lengthAdjust="spacing" textLength="451">Creating a signature for a new erc1155 contract + token</text><rect width="10" height="640.32" x="371.5" fill="#FFF" style="stroke:#181818;stroke-width:1" y="128.594"/><rect width="1112.5" height="179.063" x="10" fill="none" style="stroke:#000;stroke-width:1.5" y="135.594"/><rect width="1112.5" height="148.797" x="10" fill="none" style="stroke:#000;stroke-width:1.5" y="328.656"/><rect width="560.5" height="106.797" x="562" fill="none" style="stroke:#000;stroke-width:1.5" y="871.313"/><line style="stroke:#181818;stroke-width:.5;stroke-dasharray:5,5" x1="48" x2="48" y1="118.594" y2="995.109"/><line style="stroke:#181818;stroke-width:.5;stroke-dasharray:5,5" x1="376" x2="376" y1="118.594" y2="995.109"/><line style="stroke:#181818;stroke-width:.5;stroke-dasharray:5,5" x1="618" x2="618" y1="118.594" y2="995.109"/><line style="stroke:#181818;stroke-width:.5;stroke-dasharray:5,5" x1="950.5" x2="950.5" y1="118.594" y2="995.109"/><line style="stroke:#181818;stroke-width:.5;stroke-dasharray:5,5" x1="1065.5" x2="1065.5" y1="118.594" y2="995.109"/><text x="20" y="115.292" fill="#000" font-family="sans-serif" font-size="14" lengthAdjust="spacing" textLength="51">Creator</text><ellipse cx="48.5" cy="50.797" fill="#E2E2F0" rx="8" ry="8" style="stroke:#181818;stroke-width:.5"/><path fill="none" d="M48.5,58.7969 L48.5,85.7969 M35.5,66.7969 L61.5,66.7969 M48.5,85.7969 L35.5,100.7969 M48.5,85.7969 L61.5,100.7969" style="stroke:#181818;stroke-width:.5"/><text x="20" y="1007.105" fill="#000" font-family="sans-serif" font-size="14" lengthAdjust="spacing" textLength="51">Creator</text><ellipse cx="48.5" cy="1018.906" fill="#E2E2F0" rx="8" ry="8" style="stroke:#181818;stroke-width:.5"/><path fill="none" d="M48.5,1026.9063 L48.5,1053.9063 M35.5,1034.9063 L61.5,1034.9063 M48.5,1053.9063 L35.5,1068.9063 M48.5,1053.9063 L61.5,1068.9063" style="stroke:#181818;stroke-width:.5"/><text x="333" y="115.292" fill="#000" font-family="sans-serif" font-size="14" lengthAdjust="spacing" textLength="81">CreatePage</text><ellipse cx="376.5" cy="86.297" fill="#E2E2F0" rx="12" ry="12" style="stroke:#181818;stroke-width:.5"/><line style="stroke:#181818;stroke-width:.5" x1="364.5" x2="388.5" y1="100.297" y2="100.297"/><text x="333" y="1007.105" fill="#000" font-family="sans-serif" font-size="14" lengthAdjust="spacing" textLength="81">CreatePage</text><ellipse cx="376.5" cy="1026.406" fill="#E2E2F0" rx="12" ry="12" style="stroke:#181818;stroke-width:.5"/><line style="stroke:#181818;stroke-width:.5" x1="364.5" x2="388.5" y1="1040.406" y2="1040.406"/><text x="572" y="115.292" fill="#000" font-family="sans-serif" font-size="14" lengthAdjust="spacing" textLength="87">SignatureAPI</text><path fill="none" d="M598,74.2969 L598,98.2969 M598,86.2969 L615,86.2969" style="stroke:#181818;stroke-width:.5"/><ellipse cx="627" cy="86.297" fill="#E2E2F0" rx="12" ry="12" style="stroke:#181818;stroke-width:.5"/><text x="572" y="1007.105" fill="#000" font-family="sans-serif" font-size="14" lengthAdjust="spacing" textLength="87">SignatureAPI</text><path fill="none" d="M598,1014.4063 L598,1038.4063 M598,1026.4063 L615,1026.4063" style="stroke:#181818;stroke-width:.5"/><ellipse cx="627" cy="1026.406" fill="#E2E2F0" rx="12" ry="12" style="stroke:#181818;stroke-width:.5"/><text x="891.5" y="115.292" fill="#000" font-family="sans-serif" font-size="14" lengthAdjust="spacing" textLength="112">PremintContract</text><path fill="none" d="M930,74.2969 L930,98.2969 M930,86.2969 L947,86.2969" style="stroke:#181818;stroke-width:.5"/><ellipse cx="959" cy="86.297" fill="#E2E2F0" rx="12" ry="12" style="stroke:#181818;stroke-width:.5"/><text x="891.5" y="1007.105" fill="#000" font-family="sans-serif" font-size="14" lengthAdjust="spacing" textLength="112">PremintContract</text><path fill="none" d="M930,1014.4063 L930,1038.4063 M930,1026.4063 L947,1026.4063" style="stroke:#181818;stroke-width:.5"/><ellipse cx="959" cy="1026.406" fill="#E2E2F0" rx="12" ry="12" style="stroke:#181818;stroke-width:.5"/><text x="1019.5" y="115.292" fill="#000" font-family="sans-serif" font-size="14" lengthAdjust="spacing" textLength="87">SignatureDB</text><ellipse cx="1066" cy="86.297" fill="#E2E2F0" rx="12" ry="12" style="stroke:#181818;stroke-width:.5"/><line style="stroke:#181818;stroke-width:.5" x1="1054" x2="1078" y1="100.297" y2="100.297"/><text x="1019.5" y="1007.105" fill="#000" font-family="sans-serif" font-size="14" lengthAdjust="spacing" textLength="87">SignatureDB</text><ellipse cx="1066" cy="1026.406" fill="#E2E2F0" rx="12" ry="12" style="stroke:#181818;stroke-width:.5"/><line style="stroke:#181818;stroke-width:.5" x1="1054" x2="1078" y1="1040.406" y2="1040.406"/><rect width="10" height="640.32" x="371.5" fill="#FFF" style="stroke:#181818;stroke-width:1" y="128.594"/><path fill="#EEE" d="M10,135.5938 L337,135.5938 L337,142.7266 L327,152.7266 L10,152.7266 L10,135.5938" style="stroke:#000;stroke-width:1.5"/><rect width="1112.5" height="179.063" x="10" fill="none" style="stroke:#000;stroke-width:1.5" y="135.594"/><text x="25" y="148.661" fill="#000" font-family="sans-serif" font-size="13" font-weight="bold" lengthAdjust="spacing" textLength="282">Signature not created for contract yet</text><polygon fill="#181818" points="359.5 169.859 369.5 173.859 359.5 177.859 363.5 173.859" style="stroke:#181818;stroke-width:1"/><line style="stroke:#181818;stroke-width:1" x1="48.5" x2="365.5" y1="173.859" y2="173.859"/><text x="55.5" y="168.793" fill="#000" font-family="sans-serif" font-size="13" lengthAdjust="spacing" textLength="226">setup NEW contract name + image</text><polygon fill="#181818" points="606.5 229.258 616.5 233.258 606.5 237.258 610.5 233.258" style="stroke:#181818;stroke-width:1"/><line style="stroke:#181818;stroke-width:1" x1="381.5" x2="612.5" y1="233.258" y2="233.258"/><text x="388.5" y="197.926" fill="#000" font-family="sans-serif" font-size="13" lengthAdjust="spacing" textLength="137">validate that contract</text><text x="388.5" y="213.059" fill="#000" font-family="sans-serif" font-size="13" lengthAdjust="spacing" textLength="139">with same params for</text><text x="388.5" y="228.192" fill="#000" font-family="sans-serif" font-size="13" lengthAdjust="spacing" textLength="128">creator doesnt exist</text><polygon fill="#181818" points="1054 273.523 1064 277.523 1054 281.523 1058 277.523" style="stroke:#181818;stroke-width:1"/><line style="stroke:#181818;stroke-width:1" x1="618.5" x2="1060" y1="277.523" y2="277.523"/><text x="625.5" y="257.325" fill="#000" font-family="sans-serif" font-size="13" lengthAdjust="spacing" textLength="176">check if signature with hash</text><text x="625.5" y="272.457" fill="#000" font-family="sans-serif" font-size="13" lengthAdjust="spacing" textLength="184">for contract is already stored</text><polygon fill="#181818" points="392.5 302.656 382.5 306.656 392.5 310.656 388.5 306.656" style="stroke:#181818;stroke-width:1"/><line style="stroke:#181818;stroke-width:1;stroke-dasharray:2,2" x1="386.5" x2="617.5" y1="306.656" y2="306.656"/><text x="398.5" y="301.59" fill="#000" font-family="sans-serif" font-size="13" lengthAdjust="spacing" textLength="108">validation results</text><path fill="#EEE" d="M10,328.6563 L353,328.6563 L353,335.7891 L343,345.7891 L10,345.7891 L10,328.6563" style="stroke:#000;stroke-width:1.5"/><rect width="1112.5" height="148.797" x="10" fill="none" style="stroke:#000;stroke-width:1.5" y="328.656"/><text x="25" y="341.723" fill="#000" font-family="sans-serif" font-size="13" font-weight="bold" lengthAdjust="spacing" textLength="298">Signature has been created for contract</text><polygon fill="#181818" points="359.5 362.922 369.5 366.922 359.5 370.922 363.5 366.922" style="stroke:#181818;stroke-width:1"/><line style="stroke:#181818;stroke-width:1" x1="48.5" x2="365.5" y1="366.922" y2="366.922"/><text x="55.5" y="361.856" fill="#000" font-family="sans-serif" font-size="13" lengthAdjust="spacing" textLength="285">load page by deterministic collection address</text><polygon fill="#181818" points="606.5 392.055 616.5 396.055 606.5 400.055 610.5 396.055" style="stroke:#181818;stroke-width:1"/><line style="stroke:#181818;stroke-width:1" x1="381.5" x2="612.5" y1="396.055" y2="396.055"/><text x="388.5" y="390.989" fill="#000" font-family="sans-serif" font-size="13" lengthAdjust="spacing" textLength="200">load collection creation params</text><polygon fill="#181818" points="1054 436.32 1064 440.32 1054 444.32 1058 440.32" style="stroke:#181818;stroke-width:1"/><line style="stroke:#181818;stroke-width:1" x1="618.5" x2="1060" y1="440.32" y2="440.32"/><text x="625.5" y="420.122" fill="#000" font-family="sans-serif" font-size="13" lengthAdjust="spacing" textLength="205">fetch collection creation params</text><text x="625.5" y="435.254" fill="#000" font-family="sans-serif" font-size="13" lengthAdjust="spacing" textLength="50">by hash</text><polygon fill="#181818" points="392.5 465.453 382.5 469.453 392.5 473.453 388.5 469.453" style="stroke:#181818;stroke-width:1"/><line style="stroke:#181818;stroke-width:1;stroke-dasharray:2,2" x1="386.5" x2="617.5" y1="469.453" y2="469.453"/><text x="398.5" y="464.387" fill="#000" font-family="sans-serif" font-size="13" lengthAdjust="spacing" textLength="162">contract creation params</text><polygon fill="#181818" points="359.5 501.586 369.5 505.586 359.5 509.586 363.5 505.586" style="stroke:#181818;stroke-width:1"/><line style="stroke:#181818;stroke-width:1" x1="48.5" x2="365.5" y1="505.586" y2="505.586"/><text x="55.5" y="500.52" fill="#000" font-family="sans-serif" font-size="13" lengthAdjust="spacing" textLength="105">setup new token</text><polygon fill="#181818" points="938.5 530.719 948.5 534.719 938.5 538.719 942.5 534.719" style="stroke:#181818;stroke-width:1"/><line style="stroke:#181818;stroke-width:1" x1="381.5" x2="944.5" y1="534.719" y2="534.719"/><text x="388.5" y="529.653" fill="#000" font-family="sans-serif" font-size="13" lengthAdjust="spacing" textLength="224">get deterministic collection address</text><polygon fill="#181818" points="392.5 559.852 382.5 563.852 392.5 567.852 388.5 563.852" style="stroke:#181818;stroke-width:1"/><line style="stroke:#181818;stroke-width:1;stroke-dasharray:2,2" x1="386.5" x2="949.5" y1="563.852" y2="563.852"/><text x="398.5" y="558.786" fill="#000" font-family="sans-serif" font-size="13" lengthAdjust="spacing" textLength="199">deterministic collection address</text><polygon fill="#181818" points="606.5 588.984 616.5 592.984 606.5 596.984 610.5 592.984" style="stroke:#181818;stroke-width:1"/><line style="stroke:#181818;stroke-width:1" x1="381.5" x2="612.5" y1="592.984" y2="592.984"/><text x="388.5" y="587.918" fill="#000" font-family="sans-serif" font-size="13" lengthAdjust="spacing" textLength="213">get new uid for collection address</text><polygon fill="#181818" points="1054 633.25 1064 637.25 1054 641.25 1058 637.25" style="stroke:#181818;stroke-width:1"/><line style="stroke:#181818;stroke-width:1" x1="618.5" x2="1060" y1="637.25" y2="637.25"/><text x="625.5" y="617.051" fill="#000" font-family="sans-serif" font-size="13" lengthAdjust="spacing" textLength="116">get next token uid</text><text x="625.5" y="632.184" fill="#000" font-family="sans-serif" font-size="13" lengthAdjust="spacing" textLength="182">scoped to collection address</text><polygon fill="#181818" points="629.5 662.383 619.5 666.383 629.5 670.383 625.5 666.383" style="stroke:#181818;stroke-width:1"/><line style="stroke:#181818;stroke-width:1;stroke-dasharray:2,2" x1="623.5" x2="1065" y1="666.383" y2="666.383"/><text x="635.5" y="661.317" fill="#000" font-family="sans-serif" font-size="13" lengthAdjust="spacing" textLength="91">next token uid</text><polygon fill="#181818" points="392.5 691.516 382.5 695.516 392.5 699.516 388.5 695.516" style="stroke:#181818;stroke-width:1"/><line style="stroke:#181818;stroke-width:1;stroke-dasharray:2,2" x1="386.5" x2="617.5" y1="695.516" y2="695.516"/><text x="398.5" y="690.45" fill="#000" font-family="sans-serif" font-size="13" lengthAdjust="spacing" textLength="91">next token uid</text><polygon fill="#181818" points="359.5 720.648 369.5 724.648 359.5 728.648 363.5 724.648" style="stroke:#181818;stroke-width:1"/><line style="stroke:#181818;stroke-width:1" x1="48.5" x2="365.5" y1="724.648" y2="724.648"/><text x="55.5" y="719.582" fill="#000" font-family="sans-serif" font-size="13" lengthAdjust="spacing" textLength="224">Submit new token creation params</text><polygon fill="#181818" points="59.5 764.914 49.5 768.914 59.5 772.914 55.5 768.914" style="stroke:#181818;stroke-width:1"/><line style="stroke:#181818;stroke-width:1" x1="53.5" x2="375.5" y1="768.914" y2="768.914"/><text x="65.5" y="748.715" fill="#000" font-family="sans-serif" font-size="13" lengthAdjust="spacing" textLength="129">request signature of</text><text x="69.5" y="763.848" fill="#000" font-family="sans-serif" font-size="13" lengthAdjust="spacing" textLength="295">contract + token creation params + token uid</text><polygon fill="#181818" points="606.5 794.047 616.5 798.047 606.5 802.047 610.5 798.047" style="stroke:#181818;stroke-width:1"/><line style="stroke:#181818;stroke-width:1" x1="48.5" x2="612.5" y1="798.047" y2="798.047"/><text x="55.5" y="792.981" fill="#000" font-family="sans-serif" font-size="13" lengthAdjust="spacing" textLength="368">Submit signature + contract + token params + token uid</text><polygon fill="#181818" points="938.5 823.18 948.5 827.18 938.5 831.18 942.5 827.18" style="stroke:#181818;stroke-width:1"/><line style="stroke:#181818;stroke-width:1" x1="618.5" x2="944.5" y1="827.18" y2="827.18"/><text x="625.5" y="822.114" fill="#000" font-family="sans-serif" font-size="13" lengthAdjust="spacing" textLength="114">validate signature</text><polygon fill="#181818" points="629.5 852.313 619.5 856.313 629.5 860.313 625.5 856.313" style="stroke:#181818;stroke-width:1"/><line style="stroke:#181818;stroke-width:1;stroke-dasharray:2,2" x1="623.5" x2="949.5" y1="856.313" y2="856.313"/><text x="635.5" y="851.247" fill="#000" font-family="sans-serif" font-size="13" lengthAdjust="spacing" textLength="308">validation results (true/false &amp; recovered signer)</text><path fill="#EEE" d="M562,871.3125 L735,871.3125 L735,878.4453 L725,888.4453 L562,888.4453 L562,871.3125" style="stroke:#000;stroke-width:1.5"/><rect width="560.5" height="106.797" x="562" fill="none" style="stroke:#000;stroke-width:1.5" y="871.313"/><text x="577" y="884.379" fill="#000" font-family="sans-serif" font-size="13" font-weight="bold" lengthAdjust="spacing" textLength="128">Signature is valid</text><polygon fill="#181818" points="1054 966.109 1064 970.109 1054 974.109 1058 970.109" style="stroke:#181818;stroke-width:1"/><line style="stroke:#181818;stroke-width:1" x1="618.5" x2="1060" y1="970.109" y2="970.109"/><text x="625.5" y="904.512" fill="#000" font-family="sans-serif" font-size="13" lengthAdjust="spacing" textLength="112">store signature +</text><text x="625.5" y="919.645" fill="#000" font-family="sans-serif" font-size="13" lengthAdjust="spacing" textLength="124">contract creation +</text><text x="625.5" y="934.778" fill="#000" font-family="sans-serif" font-size="13" lengthAdjust="spacing" textLength="160">token creation params +</text><text x="625.5" y="949.911" fill="#000" font-family="sans-serif" font-size="13" lengthAdjust="spacing" textLength="130">collection address +</text><text x="625.5" y="965.043" fill="#000" font-family="sans-serif" font-size="13" lengthAdjust="spacing" textLength="59">token uid</text></g></svg>