<svg xmlns="http://www.w3.org/2000/svg" xmlns:xlink="http://www.w3.org/1999/xlink" width="642" height="280" contentStyleType="text/css" preserveAspectRatio="none" style="width:642px;height:280px;background:#fff" version="1.1" viewBox="0 0 642 280" zoomAndPan="magnify"><g><g id="elem_MINTsContract"><rect id="MINTsContract" width="621" height="259.859" x="7" y="7" fill="#F1F1F1" codeLine="1" rx="2.5" ry="2.5" style="stroke:#181818;stroke-width:.5"/><ellipse cx="262.75" cy="23" fill="#ADD1B2" rx="11" ry="11" style="stroke:#181818;stroke-width:1"/><path fill="#000" d="M265.7188,28.6406 Q265.1406,28.9375 264.5,29.0781 Q263.8594,29.2344 263.1563,29.2344 Q260.6563,29.2344 259.3281,27.5938 Q258.0156,25.9375 258.0156,22.8125 Q258.0156,19.6875 259.3281,18.0313 Q260.6563,16.375 263.1563,16.375 Q263.8594,16.375 264.5,16.5313 Q265.1563,16.6875 265.7188,16.9844 L265.7188,19.7031 Q265.0938,19.125 264.5,18.8594 Q263.9063,18.5781 263.2813,18.5781 Q261.9375,18.5781 261.25,19.6563 Q260.5625,20.7188 260.5625,22.8125 Q260.5625,24.9063 261.25,25.9844 Q261.9375,27.0469 263.2813,27.0469 Q263.9063,27.0469 264.5,26.7813 Q265.0938,26.5 265.7188,25.9219 L265.7188,28.6406 Z"/><text x="283.25" y="27.847" fill="#000" font-family="sans-serif" font-size="14" lengthAdjust="spacing" textLength="101">MINTsContract</text><line style="stroke:#181818;stroke-width:.5" x1="8" x2="627" y1="39" y2="39"/><rect width="6" height="6" x="15" fill="none" style="stroke:#c82930;stroke-width:1" y="49.648"/><text x="27" y="55.995" fill="#000" font-family="sans-serif" font-size="14" lengthAdjust="spacing" textLength="188">mintableEthToken: uint256</text><rect width="6" height="6" x="15" fill="none" style="stroke:#c82930;stroke-width:1" y="65.945"/><text x="27" y="72.292" fill="#000" font-family="sans-serif" font-size="14" lengthAdjust="spacing" textLength="219">tokenCreated: uint256 =&gt; bool</text><rect width="6" height="6" x="15" fill="none" style="stroke:#c82930;stroke-width:1" y="82.242"/><text x="27" y="88.589" fill="#000" font-family="sans-serif" font-size="14" lengthAdjust="spacing" textLength="229">tokenPrices: uint256 =&gt; uint256</text><line style="stroke:#181818;stroke-width:.5" x1="8" x2="627" y1="95.891" y2="95.891"/><polygon fill="#FF4" points="18 104.539 22 108.539 18 112.539 14 108.539" style="stroke:#b38d22;stroke-width:1"/><text x="27" y="112.886" fill="#000" font-family="sans-serif" font-size="14" lengthAdjust="spacing" textLength="560">initialize(owner: address, initialEthTokenId: uint256, initialEthTokenPrice: uint256)</text><polygon fill="#FF4" points="18 120.836 22 124.836 18 128.836 14 124.836" style="stroke:#b38d22;stroke-width:1"/><text x="27" y="129.183" fill="#000" font-family="sans-serif" font-size="14" lengthAdjust="spacing" textLength="595">createEthToken(tokenId: uint256, pricePerToken: uint256, defaultMintable: bool): void</text><polygon fill="#FF4" points="18 137.133 22 141.133 18 145.133 14 141.133" style="stroke:#b38d22;stroke-width:1"/><text x="27" y="145.48" fill="#000" font-family="sans-serif" font-size="14" lengthAdjust="spacing" textLength="308">setMintableEthToken(tokenId: uint256): void</text><ellipse cx="18" cy="158.43" fill="#84BE84" rx="3" ry="3" style="stroke:#038048;stroke-width:1"/><text x="27" y="161.776" fill="#000" font-family="sans-serif" font-size="14" lengthAdjust="spacing" textLength="405">mintWithEth(quantity: uint256, recipient: address): uint256</text><ellipse cx="18" cy="174.727" fill="#84BE84" rx="3" ry="3" style="stroke:#038048;stroke-width:1"/><text x="27" y="178.073" fill="#000" font-family="sans-serif" font-size="14" lengthAdjust="spacing" textLength="152">getEthPrice(): uint256</text><ellipse cx="18" cy="191.023" fill="#84BE84" rx="3" ry="3" style="stroke:#038048;stroke-width:1"/><text x="27" y="194.37" fill="#000" font-family="sans-serif" font-size="14" lengthAdjust="spacing" textLength="473">redeem(tokenId: uint256, quantity: uint256, recipient: address): void</text><ellipse cx="18" cy="207.32" fill="#84BE84" rx="3" ry="3" style="stroke:#038048;stroke-width:1"/><text x="27" y="210.667" fill="#000" font-family="sans-serif" font-size="14" lengthAdjust="spacing" textLength="497">collect(mintTokenIds, quantities, 1155Contract, 1155TokenId, mintArgs)</text><ellipse cx="18" cy="223.617" fill="#84BE84" rx="3" ry="3" style="stroke:#038048;stroke-width:1"/><text x="27" y="226.964" fill="#000" font-family="sans-serif" font-size="14" lengthAdjust="spacing" textLength="579">collectPremint(mintTokenIds, quantities, premintConfig, premintSignature, mintArgs)</text><ellipse cx="18" cy="239.914" fill="#84BE84" rx="3" ry="3" style="stroke:#038048;stroke-width:1"/><text x="27" y="243.261" fill="#000" font-family="sans-serif" font-size="14" lengthAdjust="spacing" textLength="97">name(): string</text><ellipse cx="18" cy="256.211" fill="#84BE84" rx="3" ry="3" style="stroke:#038048;stroke-width:1"/><text x="27" y="259.558" fill="#000" font-family="sans-serif" font-size="14" lengthAdjust="spacing" textLength="107">symbol(): string</text></g></g></svg>