<svg xmlns="http://www.w3.org/2000/svg" xmlns:xlink="http://www.w3.org/1999/xlink" width="700" height="596" contentStyleType="text/css" preserveAspectRatio="none" style="width:700px;height:596px;background:#fff" version="1.1" viewBox="0 0 700 596" zoomAndPan="magnify"><g><rect width="10" height="29.133" x="128.5" fill="#FFF" style="stroke:#181818;stroke-width:1" y="196.828"/><rect width="10" height="361.594" x="205.5" fill="#FFF" style="stroke:#181818;stroke-width:1" y="136.563"/><rect width="10" height="118.531" x="524.5" fill="#FFF" style="stroke:#181818;stroke-width:1" y="301.359"/><rect width="241" height="46.266" x="10" fill="none" style="stroke:#000;stroke-width:1.5" y="98.297"/><rect width="241" height="75.398" x="10" fill="none" style="stroke:#000;stroke-width:1.5" y="158.563"/><rect width="391" height="90.531" x="170" fill="none" style="stroke:#000;stroke-width:1.5" y="247.961"/><rect width="524" height="75.398" x="170" fill="none" style="stroke:#000;stroke-width:1.5" y="352.492"/><line style="stroke:#181818;stroke-width:.5;stroke-dasharray:5,5" x1="53" x2="53" y1="81.297" y2="516.156"/><line style="stroke:#181818;stroke-width:.5;stroke-dasharray:5,5" x1="133" x2="133" y1="81.297" y2="516.156"/><line style="stroke:#181818;stroke-width:.5;stroke-dasharray:5,5" x1="210" x2="210" y1="81.297" y2="516.156"/><line style="stroke:#181818;stroke-width:.5;stroke-dasharray:5,5" x1="529" x2="529" y1="81.297" y2="516.156"/><line style="stroke:#181818;stroke-width:.5;stroke-dasharray:5,5" x1="622" x2="622" y1="81.297" y2="516.156"/><text x="20" y="77.995" fill="#000" font-family="sans-serif" font-size="14" lengthAdjust="spacing" textLength="61">Collector</text><ellipse cx="53.5" cy="13.5" fill="#E2E2F0" rx="8" ry="8" style="stroke:#181818;stroke-width:.5"/><path fill="none" d="M53.5,21.5 L53.5,48.5 M40.5,29.5 L66.5,29.5 M53.5,48.5 L40.5,63.5 M53.5,48.5 L66.5,63.5" style="stroke:#181818;stroke-width:.5"/><text x="20" y="528.151" fill="#000" font-family="sans-serif" font-size="14" lengthAdjust="spacing" textLength="61">Collector</text><ellipse cx="53.5" cy="539.953" fill="#E2E2F0" rx="8" ry="8" style="stroke:#181818;stroke-width:.5"/><path fill="none" d="M53.5,547.9531 L53.5,574.9531 M40.5,555.9531 L66.5,555.9531 M53.5,574.9531 L40.5,589.9531 M53.5,574.9531 L66.5,589.9531" style="stroke:#181818;stroke-width:.5"/><text x="97" y="77.995" fill="#000" font-family="sans-serif" font-size="14" lengthAdjust="spacing" textLength="67">Preminter</text><ellipse cx="133.5" cy="49" fill="#E2E2F0" rx="12" ry="12" style="stroke:#181818;stroke-width:.5"/><line style="stroke:#181818;stroke-width:.5" x1="121.5" x2="145.5" y1="63" y2="63"/><text x="97" y="528.151" fill="#000" font-family="sans-serif" font-size="14" lengthAdjust="spacing" textLength="67">Preminter</text><ellipse cx="133.5" cy="547.453" fill="#E2E2F0" rx="12" ry="12" style="stroke:#181818;stroke-width:.5"/><line style="stroke:#181818;stroke-width:.5" x1="121.5" x2="145.5" y1="561.453" y2="561.453"/><text x="180" y="77.995" fill="#000" font-family="sans-serif" font-size="14" lengthAdjust="spacing" textLength="55">1155Nft</text><ellipse cx="210.5" cy="49" fill="#E2E2F0" rx="12" ry="12" style="stroke:#181818;stroke-width:.5"/><line style="stroke:#181818;stroke-width:.5" x1="198.5" x2="222.5" y1="63" y2="63"/><text x="180" y="528.151" fill="#000" font-family="sans-serif" font-size="14" lengthAdjust="spacing" textLength="55">1155Nft</text><ellipse cx="210.5" cy="547.453" fill="#E2E2F0" rx="12" ry="12" style="stroke:#181818;stroke-width:.5"/><line style="stroke:#181818;stroke-width:.5" x1="198.5" x2="222.5" y1="561.453" y2="561.453"/><text x="508" y="77.995" fill="#000" font-family="sans-serif" font-size="14" lengthAdjust="spacing" textLength="37">Mints</text><ellipse cx="529.5" cy="49" fill="#E2E2F0" rx="12" ry="12" style="stroke:#181818;stroke-width:.5"/><line style="stroke:#181818;stroke-width:.5" x1="517.5" x2="541.5" y1="63" y2="63"/><text x="508" y="528.151" fill="#000" font-family="sans-serif" font-size="14" lengthAdjust="spacing" textLength="37">Mints</text><ellipse cx="529.5" cy="547.453" fill="#E2E2F0" rx="12" ry="12" style="stroke:#181818;stroke-width:.5"/><line style="stroke:#181818;stroke-width:.5" x1="517.5" x2="541.5" y1="561.453" y2="561.453"/><text x="561" y="77.995" fill="#000" font-family="sans-serif" font-size="14" lengthAdjust="spacing" textLength="117">ProtocolRewards</text><ellipse cx="622.5" cy="49" fill="#E2E2F0" rx="12" ry="12" style="stroke:#181818;stroke-width:.5"/><line style="stroke:#181818;stroke-width:.5" x1="610.5" x2="634.5" y1="63" y2="63"/><text x="561" y="528.151" fill="#000" font-family="sans-serif" font-size="14" lengthAdjust="spacing" textLength="117">ProtocolRewards</text><ellipse cx="622.5" cy="547.453" fill="#E2E2F0" rx="12" ry="12" style="stroke:#181818;stroke-width:.5"/><line style="stroke:#181818;stroke-width:.5" x1="610.5" x2="634.5" y1="561.453" y2="561.453"/><rect width="10" height="29.133" x="128.5" fill="#FFF" style="stroke:#181818;stroke-width:1" y="196.828"/><rect width="10" height="361.594" x="205.5" fill="#FFF" style="stroke:#181818;stroke-width:1" y="136.563"/><rect width="10" height="118.531" x="524.5" fill="#FFF" style="stroke:#181818;stroke-width:1" y="301.359"/><path fill="#EEE" d="M10,98.2969 L145,98.2969 L145,105.4297 L135,115.4297 L10,115.4297 L10,98.2969" style="stroke:#000;stroke-width:1.5"/><rect width="241" height="46.266" x="10" fill="none" style="stroke:#000;stroke-width:1.5" y="98.297"/><text x="25" y="111.364" fill="#000" font-family="sans-serif" font-size="13" font-weight="bold" lengthAdjust="spacing" textLength="90">non-premint</text><polygon fill="#181818" points="193.5 132.563 203.5 136.563 193.5 140.563 197.5 136.563" style="stroke:#181818;stroke-width:1"/><line style="stroke:#181818;stroke-width:1" x1="53.5" x2="199.5" y1="136.563" y2="136.563"/><text x="60.5" y="131.497" fill="#000" font-family="sans-serif" font-size="13" lengthAdjust="spacing" textLength="29">mint</text><path fill="#EEE" d="M10,158.5625 L113,158.5625 L113,165.6953 L103,175.6953 L10,175.6953 L10,158.5625" style="stroke:#000;stroke-width:1.5"/><rect width="241" height="75.398" x="10" fill="none" style="stroke:#000;stroke-width:1.5" y="158.563"/><text x="25" y="171.629" fill="#000" font-family="sans-serif" font-size="13" font-weight="bold" lengthAdjust="spacing" textLength="58">premint</text><polygon fill="#181818" points="116.5 192.828 126.5 196.828 116.5 200.828 120.5 196.828" style="stroke:#181818;stroke-width:1"/><line style="stroke:#181818;stroke-width:1" x1="53.5" x2="122.5" y1="196.828" y2="196.828"/><text x="60.5" y="191.762" fill="#000" font-family="sans-serif" font-size="13" lengthAdjust="spacing" textLength="50">premint</text><polygon fill="#181818" points="193.5 221.961 203.5 225.961 193.5 229.961 197.5 225.961" style="stroke:#181818;stroke-width:1"/><line style="stroke:#181818;stroke-width:1" x1="133.5" x2="199.5" y1="225.961" y2="225.961"/><text x="140.5" y="220.895" fill="#000" font-family="sans-serif" font-size="13" lengthAdjust="spacing" textLength="29">mint</text><path fill="#EEE" d="M170,247.9609 L411,247.9609 L411,255.0938 L401,265.0938 L170,265.0938 L170,247.9609" style="stroke:#000;stroke-width:1.5"/><rect width="391" height="90.531" x="170" fill="none" style="stroke:#000;stroke-width:1.5" y="247.961"/><text x="185" y="261.028" fill="#000" font-family="sans-serif" font-size="13" font-weight="bold" lengthAdjust="spacing" textLength="196">mint mintToken(s) to 1155</text><polygon fill="#181818" points="512.5 297.359 522.5 301.359 512.5 305.359 516.5 301.359" style="stroke:#181818;stroke-width:1"/><line style="stroke:#181818;stroke-width:1" x1="215.5" x2="518.5" y1="301.359" y2="301.359"/><text x="222.5" y="281.161" fill="#000" font-family="sans-serif" font-size="13" lengthAdjust="spacing" textLength="82">mintWithEth(</text><text x="222.5" y="296.293" fill="#000" font-family="sans-serif" font-size="13" lengthAdjust="spacing" textLength="175">quantity, recipient:1155Nft)</text><polygon fill="#181818" points="226.5 326.492 216.5 330.492 226.5 334.492 222.5 330.492" style="stroke:#181818;stroke-width:1"/><line style="stroke:#181818;stroke-width:1;stroke-dasharray:2,2" x1="220.5" x2="523.5" y1="330.492" y2="330.492"/><text x="232.5" y="325.426" fill="#000" font-family="sans-serif" font-size="13" lengthAdjust="spacing" textLength="188">mints (mintTokenId, quantity)</text><path fill="#EEE" d="M170,352.4922 L558,352.4922 L558,359.625 L548,369.625 L170,369.625 L170,352.4922" style="stroke:#000;stroke-width:1.5"/><rect width="524" height="75.398" x="170" fill="none" style="stroke:#000;stroke-width:1.5" y="352.492"/><text x="185" y="365.559" fill="#000" font-family="sans-serif" font-size="13" font-weight="bold" lengthAdjust="spacing" textLength="343">distribute rewards for token (same as before)</text><polygon fill="#181818" points="512.5 386.758 522.5 390.758 512.5 394.758 516.5 390.758" style="stroke:#181818;stroke-width:1"/><line style="stroke:#181818;stroke-width:1" x1="215.5" x2="518.5" y1="390.758" y2="390.758"/><text x="222.5" y="385.692" fill="#000" font-family="sans-serif" font-size="13" lengthAdjust="spacing" textLength="285">redeem(tokenId, quantity, recipient:1155Nft)</text><polygon fill="#181818" points="610.5 415.891 620.5 419.891 610.5 423.891 614.5 419.891" style="stroke:#181818;stroke-width:1"/><line style="stroke:#181818;stroke-width:1" x1="215.5" x2="616.5" y1="419.891" y2="419.891"/><text x="222.5" y="414.825" fill="#000" font-family="sans-serif" font-size="13" lengthAdjust="spacing" textLength="100">depositRewards</text><line style="stroke:#181818;stroke-width:1" x1="215.5" x2="257.5" y1="456.023" y2="456.023"/><line style="stroke:#181818;stroke-width:1" x1="257.5" x2="257.5" y1="456.023" y2="469.023"/><line style="stroke:#181818;stroke-width:1" x1="216.5" x2="257.5" y1="469.023" y2="469.023"/><polygon fill="#181818" points="226.5 465.023 216.5 469.023 226.5 473.023 222.5 469.023" style="stroke:#181818;stroke-width:1"/><text x="222.5" y="450.957" fill="#000" font-family="sans-serif" font-size="13" lengthAdjust="spacing" textLength="36">_mint</text><polygon fill="#181818" points="64.5 494.156 54.5 498.156 64.5 502.156 60.5 498.156" style="stroke:#181818;stroke-width:1"/><line style="stroke:#181818;stroke-width:1;stroke-dasharray:2,2" x1="58.5" x2="209.5" y1="498.156" y2="498.156"/><text x="70.5" y="493.09" fill="#000" font-family="sans-serif" font-size="13" lengthAdjust="spacing" textLength="128">minted 1155 tokens</text></g></svg>