<svg xmlns="http://www.w3.org/2000/svg" xmlns:xlink="http://www.w3.org/1999/xlink" width="1474" height="927" contentStyleType="text/css" preserveAspectRatio="none" style="width:1474px;height:927px;background:#fff" version="1.1" viewBox="0 0 1474 927" zoomAndPan="magnify"><g><rect width="10" height="326.594" x="353" fill="#FFF" style="stroke:#181818;stroke-width:1" y="91.297"/><rect width="10" height="261.195" x="571" fill="#FFF" style="stroke:#181818;stroke-width:1" y="230.094"/><rect width="10" height="44.266" x="792" fill="#FFF" style="stroke:#181818;stroke-width:1" y="491.289"/><rect width="10" height="29.133" x="792" fill="#FFF" style="stroke:#181818;stroke-width:1" y="624.086"/><rect width="10" height="58.266" x="792" fill="#FFF" style="stroke:#181818;stroke-width:1" y="770.883"/><rect width="10" height="175.93" x="1238" fill="#FFF" style="stroke:#181818;stroke-width:1" y="594.953"/><rect width="10" height="9" x="1440.5" fill="#FFF" style="stroke:#181818;stroke-width:1" y="829.148"/><line style="stroke:#181818;stroke-width:.5;stroke-dasharray:5,5" x1="43" x2="43" y1="81.297" y2="847.148"/><line style="stroke:#181818;stroke-width:.5;stroke-dasharray:5,5" x1="158" x2="158" y1="81.297" y2="847.148"/><line style="stroke:#181818;stroke-width:.5;stroke-dasharray:5,5" x1="268" x2="268" y1="81.297" y2="847.148"/><line style="stroke:#181818;stroke-width:.5;stroke-dasharray:5,5" x1="358" x2="358" y1="81.297" y2="847.148"/><line style="stroke:#181818;stroke-width:.5;stroke-dasharray:5,5" x1="576" x2="576" y1="81.297" y2="847.148"/><line style="stroke:#181818;stroke-width:.5;stroke-dasharray:5,5" x1="796.5" x2="796.5" y1="81.297" y2="847.148"/><line style="stroke:#181818;stroke-width:.5;stroke-dasharray:5,5" x1="1017.5" x2="1017.5" y1="81.297" y2="847.148"/><line style="stroke:#181818;stroke-width:.5;stroke-dasharray:5,5" x1="1243" x2="1243" y1="81.297" y2="847.148"/><line style="stroke:#181818;stroke-width:.5;stroke-dasharray:5,5" x1="1369" x2="1369" y1="81.297" y2="847.148"/><line style="stroke:#181818;stroke-width:.5;stroke-dasharray:5,5" x1="1445" x2="1445" y1="81.297" y2="847.148"/><text x="5" y="77.995" fill="#000" font-family="sans-serif" font-size="14" lengthAdjust="spacing" textLength="71">Developer</text><ellipse cx="43.5" cy="13.5" fill="#E2E2F0" rx="8" ry="8" style="stroke:#181818;stroke-width:.5"/><path fill="none" d="M43.5,21.5 L43.5,48.5 M30.5,29.5 L56.5,29.5 M43.5,48.5 L30.5,63.5 M43.5,48.5 L56.5,63.5" style="stroke:#181818;stroke-width:.5"/><text x="5" y="859.144" fill="#000" font-family="sans-serif" font-size="14" lengthAdjust="spacing" textLength="71">Developer</text><ellipse cx="43.5" cy="870.945" fill="#E2E2F0" rx="8" ry="8" style="stroke:#181818;stroke-width:.5"/><path fill="none" d="M43.5,878.9453 L43.5,905.9453 M30.5,886.9453 L56.5,886.9453 M43.5,905.9453 L30.5,920.9453 M43.5,905.9453 L56.5,920.9453" style="stroke:#181818;stroke-width:.5"/><text x="92" y="77.995" fill="#000" font-family="sans-serif" font-size="14" lengthAdjust="spacing" textLength="126">AnotherDeveloper</text><ellipse cx="158" cy="13.5" fill="#E2E2F0" rx="8" ry="8" style="stroke:#181818;stroke-width:.5"/><path fill="none" d="M158,21.5 L158,48.5 M145,29.5 L171,29.5 M158,48.5 L145,63.5 M158,48.5 L171,63.5" style="stroke:#181818;stroke-width:.5"/><text x="92" y="859.144" fill="#000" font-family="sans-serif" font-size="14" lengthAdjust="spacing" textLength="126">AnotherDeveloper</text><ellipse cx="158" cy="870.945" fill="#E2E2F0" rx="8" ry="8" style="stroke:#181818;stroke-width:.5"/><path fill="none" d="M158,878.9453 L158,905.9453 M145,886.9453 L171,886.9453 M158,905.9453 L145,920.9453 M158,905.9453 L171,920.9453" style="stroke:#181818;stroke-width:.5"/><text x="234" y="77.995" fill="#000" font-family="sans-serif" font-size="14" lengthAdjust="spacing" textLength="63">Reviewer</text><ellipse cx="268.5" cy="13.5" fill="#E2E2F0" rx="8" ry="8" style="stroke:#181818;stroke-width:.5"/><path fill="none" d="M268.5,21.5 L268.5,48.5 M255.5,29.5 L281.5,29.5 M268.5,48.5 L255.5,63.5 M268.5,48.5 L281.5,63.5" style="stroke:#181818;stroke-width:.5"/><text x="234" y="859.144" fill="#000" font-family="sans-serif" font-size="14" lengthAdjust="spacing" textLength="63">Reviewer</text><ellipse cx="268.5" cy="870.945" fill="#E2E2F0" rx="8" ry="8" style="stroke:#181818;stroke-width:.5"/><path fill="none" d="M268.5,878.9453 L268.5,905.9453 M255.5,886.9453 L281.5,886.9453 M268.5,905.9453 L255.5,920.9453 M268.5,905.9453 L281.5,920.9453" style="stroke:#181818;stroke-width:.5"/><text x="313" y="77.995" fill="#000" font-family="sans-serif" font-size="14" lengthAdjust="spacing" textLength="84">LocalBranch</text><ellipse cx="358" cy="49" fill="#E2E2F0" rx="12" ry="12" style="stroke:#181818;stroke-width:.5"/><line style="stroke:#181818;stroke-width:.5" x1="346" x2="370" y1="63" y2="63"/><text x="313" y="859.144" fill="#000" font-family="sans-serif" font-size="14" lengthAdjust="spacing" textLength="84">LocalBranch</text><ellipse cx="358" cy="878.445" fill="#E2E2F0" rx="12" ry="12" style="stroke:#181818;stroke-width:.5"/><line style="stroke:#181818;stroke-width:.5" x1="346" x2="370" y1="892.445" y2="892.445"/><text x="536" y="77.995" fill="#000" font-family="sans-serif" font-size="14" lengthAdjust="spacing" textLength="74">RemotePR</text><ellipse cx="576" cy="49" fill="#E2E2F0" rx="12" ry="12" style="stroke:#181818;stroke-width:.5"/><line style="stroke:#181818;stroke-width:.5" x1="564" x2="588" y1="63" y2="63"/><text x="536" y="859.144" fill="#000" font-family="sans-serif" font-size="14" lengthAdjust="spacing" textLength="74">RemotePR</text><ellipse cx="576" cy="878.445" fill="#E2E2F0" rx="12" ry="12" style="stroke:#181818;stroke-width:.5"/><line style="stroke:#181818;stroke-width:.5" x1="564" x2="588" y1="892.445" y2="892.445"/><text x="777.5" y="77.995" fill="#000" font-family="sans-serif" font-size="14" lengthAdjust="spacing" textLength="33">main</text><ellipse cx="797" cy="49" fill="#E2E2F0" rx="12" ry="12" style="stroke:#181818;stroke-width:.5"/><line style="stroke:#181818;stroke-width:.5" x1="785" x2="809" y1="63" y2="63"/><text x="777.5" y="859.144" fill="#000" font-family="sans-serif" font-size="14" lengthAdjust="spacing" textLength="33">main</text><ellipse cx="797" cy="878.445" fill="#E2E2F0" rx="12" ry="12" style="stroke:#181818;stroke-width:.5"/><line style="stroke:#181818;stroke-width:.5" x1="785" x2="809" y1="892.445" y2="892.445"/><rect width="159" height="30.297" x="938.5" y="50" fill="#E2E2F0" rx="2.5" ry="2.5" style="stroke:#181818;stroke-width:.5"/><text x="945.5" y="69.995" fill="#000" font-family="sans-serif" font-size="14" lengthAdjust="spacing" textLength="145">ReleaseGithubAction</text><rect width="159" height="30.297" x="938.5" y="846.148" fill="#E2E2F0" rx="2.5" ry="2.5" style="stroke:#181818;stroke-width:.5"/><text x="945.5" y="866.144" fill="#000" font-family="sans-serif" font-size="14" lengthAdjust="spacing" textLength="145">ReleaseGithubAction</text><text x="1171" y="77.995" fill="#000" font-family="sans-serif" font-size="14" lengthAdjust="spacing" textLength="138">VersionPackagesPR</text><ellipse cx="1243" cy="49" fill="#E2E2F0" rx="12" ry="12" style="stroke:#181818;stroke-width:.5"/><line style="stroke:#181818;stroke-width:.5" x1="1231" x2="1255" y1="63" y2="63"/><text x="1171" y="859.144" fill="#000" font-family="sans-serif" font-size="14" lengthAdjust="spacing" textLength="138">VersionPackagesPR</text><ellipse cx="1243" cy="878.445" fill="#E2E2F0" rx="12" ry="12" style="stroke:#181818;stroke-width:.5"/><line style="stroke:#181818;stroke-width:.5" x1="1231" x2="1255" y1="892.445" y2="892.445"/><rect width="88" height="30.297" x="1325" y="50" fill="#E2E2F0" rx="2.5" ry="2.5" style="stroke:#181818;stroke-width:.5"/><text x="1332" y="69.995" fill="#000" font-family="sans-serif" font-size="14" lengthAdjust="spacing" textLength="74">blockchain</text><rect width="88" height="30.297" x="1325" y="846.148" fill="#E2E2F0" rx="2.5" ry="2.5" style="stroke:#181818;stroke-width:.5"/><text x="1332" y="866.144" fill="#000" font-family="sans-serif" font-size="14" lengthAdjust="spacing" textLength="74">blockchain</text><rect width="45" height="30.297" x="1423" y="50" fill="#E2E2F0" rx="2.5" ry="2.5" style="stroke:#181818;stroke-width:.5"/><text x="1430" y="69.995" fill="#000" font-family="sans-serif" font-size="14" lengthAdjust="spacing" textLength="31">npm</text><rect width="45" height="30.297" x="1423" y="846.148" fill="#E2E2F0" rx="2.5" ry="2.5" style="stroke:#181818;stroke-width:.5"/><text x="1430" y="866.144" fill="#000" font-family="sans-serif" font-size="14" lengthAdjust="spacing" textLength="31">npm</text><rect width="10" height="326.594" x="353" fill="#FFF" style="stroke:#181818;stroke-width:1" y="91.297"/><rect width="10" height="261.195" x="571" fill="#FFF" style="stroke:#181818;stroke-width:1" y="230.094"/><rect width="10" height="44.266" x="792" fill="#FFF" style="stroke:#181818;stroke-width:1" y="491.289"/><rect width="10" height="29.133" x="792" fill="#FFF" style="stroke:#181818;stroke-width:1" y="624.086"/><rect width="10" height="58.266" x="792" fill="#FFF" style="stroke:#181818;stroke-width:1" y="770.883"/><rect width="10" height="175.93" x="1238" fill="#FFF" style="stroke:#181818;stroke-width:1" y="594.953"/><rect width="10" height="9" x="1440.5" fill="#FFF" style="stroke:#181818;stroke-width:1" y="829.148"/><polygon fill="#181818" points="341 123.563 351 127.563 341 131.563 345 127.563" style="stroke:#181818;stroke-width:1"/><line style="stroke:#181818;stroke-width:1" x1="43.5" x2="347" y1="127.563" y2="127.563"/><text x="50.5" y="107.364" fill="#000" font-family="sans-serif" font-size="13" lengthAdjust="spacing" textLength="155">Change smart contracts</text><text x="50.5" y="122.497" fill="#000" font-family="sans-serif" font-size="13" lengthAdjust="spacing" textLength="77">and commit</text><polygon fill="#181818" points="341 167.828 351 171.828 341 175.828 345 171.828" style="stroke:#181818;stroke-width:1"/><line style="stroke:#181818;stroke-width:1" x1="43.5" x2="347" y1="171.828" y2="171.828"/><text x="50.5" y="151.629" fill="#000" font-family="sans-serif" font-size="13" lengthAdjust="spacing" textLength="231">yarn changeset - create a changeset</text><text x="50.5" y="166.762" fill="#000" font-family="sans-serif" font-size="13" lengthAdjust="spacing" textLength="64">&amp; commit</text><polygon fill="#181818" points="341 196.961 351 200.961 341 204.961 345 200.961" style="stroke:#181818;stroke-width:1"/><line style="stroke:#181818;stroke-width:1" x1="43.5" x2="347" y1="200.961" y2="200.961"/><text x="50.5" y="195.895" fill="#000" font-family="sans-serif" font-size="13" lengthAdjust="spacing" textLength="124">Git push &amp; open PR</text><polygon fill="#181818" points="559 226.094 569 230.094 559 234.094 563 230.094" style="stroke:#181818;stroke-width:1"/><line style="stroke:#181818;stroke-width:1;stroke-dasharray:2,2" x1="363" x2="565" y1="230.094" y2="230.094"/><text x="370" y="225.028" fill="#000" font-family="sans-serif" font-size="13" lengthAdjust="spacing" textLength="140">Deltas and changeset</text><polygon fill="#181818" points="559 255.227 569 259.227 559 263.227 563 259.227" style="stroke:#181818;stroke-width:1"/><line style="stroke:#181818;stroke-width:1" x1="268.5" x2="565" y1="259.227" y2="259.227"/><text x="275.5" y="254.161" fill="#000" font-family="sans-serif" font-size="13" lengthAdjust="spacing" textLength="73">Approve PR</text><polygon fill="#181818" points="341 284.359 351 288.359 341 292.359 345 288.359" style="stroke:#181818;stroke-width:1"/><line style="stroke:#181818;stroke-width:1" x1="43.5" x2="347" y1="288.359" y2="288.359"/><text x="50.5" y="283.293" fill="#000" font-family="sans-serif" font-size="13" lengthAdjust="spacing" textLength="124">Deploy to all chains</text><polygon fill="#181818" points="1357 313.492 1367 317.492 1357 321.492 1361 317.492" style="stroke:#181818;stroke-width:1"/><line style="stroke:#181818;stroke-width:1;stroke-dasharray:2,2" x1="363" x2="1363" y1="317.492" y2="317.492"/><text x="370" y="312.426" fill="#000" font-family="sans-serif" font-size="13" lengthAdjust="spacing" textLength="207">Updated or new smart contracts</text><line style="stroke:#181818;stroke-width:1;stroke-dasharray:2,2" x1="363" x2="405" y1="346.625" y2="346.625"/><line style="stroke:#181818;stroke-width:1;stroke-dasharray:2,2" x1="405" x2="405" y1="346.625" y2="359.625"/><line style="stroke:#181818;stroke-width:1;stroke-dasharray:2,2" x1="364" x2="405" y1="359.625" y2="359.625"/><polygon fill="#181818" points="374 355.625 364 359.625 374 363.625 370 359.625" style="stroke:#181818;stroke-width:1"/><text x="370" y="341.559" fill="#000" font-family="sans-serif" font-size="13" lengthAdjust="spacing" textLength="176">Update addresses json files</text><polygon fill="#181818" points="341 384.758 351 388.758 341 392.758 345 388.758" style="stroke:#181818;stroke-width:1"/><line style="stroke:#181818;stroke-width:1" x1="43.5" x2="347" y1="388.758" y2="388.758"/><text x="50.5" y="383.692" fill="#000" font-family="sans-serif" font-size="13" lengthAdjust="spacing" textLength="217">push updated addresses json files</text><polygon fill="#181818" points="559 413.891 569 417.891 559 421.891 563 417.891" style="stroke:#181818;stroke-width:1"/><line style="stroke:#181818;stroke-width:1;stroke-dasharray:2,2" x1="358" x2="565" y1="417.891" y2="417.891"/><text x="365" y="412.825" fill="#000" font-family="sans-serif" font-size="13" lengthAdjust="spacing" textLength="184">Updated addresses json files</text><polygon fill="#181818" points="559 443.023 569 447.023 559 451.023 563 447.023" style="stroke:#181818;stroke-width:1"/><line style="stroke:#181818;stroke-width:1" x1="43.5" x2="565" y1="447.023" y2="447.023"/><text x="50.5" y="441.957" fill="#000" font-family="sans-serif" font-size="13" lengthAdjust="spacing" textLength="93">Merge to main</text><polygon fill="#181818" points="780 487.289 790 491.289 780 495.289 784 491.289" style="stroke:#181818;stroke-width:1"/><line style="stroke:#181818;stroke-width:1;stroke-dasharray:2,2" x1="576" x2="786" y1="491.289" y2="491.289"/><text x="583" y="471.09" fill="#000" font-family="sans-serif" font-size="13" lengthAdjust="spacing" textLength="188">Code Deltas + Changesets +</text><text x="583" y="486.223" fill="#000" font-family="sans-serif" font-size="13" lengthAdjust="spacing" textLength="125">Updated addresses</text><polygon fill="#181818" points="1006 531.555 1016 535.555 1006 539.555 1010 535.555" style="stroke:#181818;stroke-width:1"/><line style="stroke:#181818;stroke-width:1;stroke-dasharray:2,2" x1="797" x2="1012" y1="535.555" y2="535.555"/><text x="804" y="515.356" fill="#000" font-family="sans-serif" font-size="13" lengthAdjust="spacing" textLength="109">Changes to main</text><text x="804" y="530.489" fill="#000" font-family="sans-serif" font-size="13" lengthAdjust="spacing" textLength="127">including changeset</text><polygon fill="#181818" points="1226 590.953 1236 594.953 1226 598.953 1230 594.953" style="stroke:#181818;stroke-width:1"/><line style="stroke:#181818;stroke-width:1" x1="1018" x2="1232" y1="594.953" y2="594.953"/><text x="1025" y="559.622" fill="#000" font-family="sans-serif" font-size="13" lengthAdjust="spacing" textLength="190">Create a PR with new versions</text><text x="1025" y="574.754" fill="#000" font-family="sans-serif" font-size="13" lengthAdjust="spacing" textLength="192">applied to package.jsons from</text><text x="1025" y="589.887" fill="#000" font-family="sans-serif" font-size="13" lengthAdjust="spacing" textLength="196">instrucitons in new changesets</text><polygon fill="#181818" points="780 620.086 790 624.086 780 628.086 784 624.086" style="stroke:#181818;stroke-width:1"/><line style="stroke:#181818;stroke-width:1" x1="158" x2="786" y1="624.086" y2="624.086"/><text x="165" y="619.02" fill="#000" font-family="sans-serif" font-size="13" lengthAdjust="spacing" textLength="143">Push a new changeset</text><polygon fill="#181818" points="1006 649.219 1016 653.219 1006 657.219 1010 653.219" style="stroke:#181818;stroke-width:1"/><line style="stroke:#181818;stroke-width:1;stroke-dasharray:2,2" x1="797" x2="1012" y1="653.219" y2="653.219"/><text x="804" y="648.153" fill="#000" font-family="sans-serif" font-size="13" lengthAdjust="spacing" textLength="96">new changeset</text><polygon fill="#181818" points="1226 708.617 1236 712.617 1226 716.617 1230 712.617" style="stroke:#181818;stroke-width:1"/><line style="stroke:#181818;stroke-width:1" x1="1018" x2="1232" y1="712.617" y2="712.617"/><text x="1025" y="677.286" fill="#000" font-family="sans-serif" font-size="13" lengthAdjust="spacing" textLength="182">Update PR with new versions</text><text x="1025" y="692.418" fill="#000" font-family="sans-serif" font-size="13" lengthAdjust="spacing" textLength="192">applied to package.jsons from</text><text x="1025" y="707.551" fill="#000" font-family="sans-serif" font-size="13" lengthAdjust="spacing" textLength="188">instrucitons in new changests</text><polygon fill="#181818" points="1226 737.75 1236 741.75 1226 745.75 1230 741.75" style="stroke:#181818;stroke-width:1"/><line style="stroke:#181818;stroke-width:1" x1="43.5" x2="1232" y1="741.75" y2="741.75"/><text x="50.5" y="736.684" fill="#000" font-family="sans-serif" font-size="13" lengthAdjust="spacing" textLength="95">merge to main</text><polygon fill="#181818" points="813 766.883 803 770.883 813 774.883 809 770.883" style="stroke:#181818;stroke-width:1"/><line style="stroke:#181818;stroke-width:1;stroke-dasharray:2,2" x1="807" x2="1242" y1="770.883" y2="770.883"/><text x="819" y="765.817" fill="#000" font-family="sans-serif" font-size="13" lengthAdjust="spacing" textLength="196">Updated versions in packages.</text><polygon fill="#181818" points="1006 796.016 1016 800.016 1006 804.016 1010 800.016" style="stroke:#181818;stroke-width:1"/><line style="stroke:#181818;stroke-width:1" x1="802" x2="1012" y1="800.016" y2="800.016"/><text x="809" y="794.95" fill="#000" font-family="sans-serif" font-size="13" lengthAdjust="spacing" textLength="192">new versions in package.jsons</text><polygon fill="#181818" points="1428.5 825.148 1438.5 829.148 1428.5 833.148 1432.5 829.148" style="stroke:#181818;stroke-width:1"/><line style="stroke:#181818;stroke-width:1" x1="1018" x2="1434.5" y1="829.148" y2="829.148"/><text x="1025" y="824.082" fill="#000" font-family="sans-serif" font-size="13" lengthAdjust="spacing" textLength="173">Build and publish packages</text></g></svg>